<svg width="80" height="80" viewBox="0 0 80 80" fill="none" xmlns="http://www.w3.org/2000/svg">
<g clip-path="url(#clip0_1_1498)">
<rect width="80" height="80" rx="6" fill="#0A66C2"/>
<g clip-path="url(#clip1_1_1498)">
<path d="M16.6666 22.8923C16.6666 21.3908 17.1922 20.1521 18.2432 19.1761C19.2942 18.2001 20.6606 17.7122 22.3423 17.7122C23.994 17.7122 25.3303 18.1926 26.3513 19.1536C27.4023 20.1446 27.9279 21.4359 27.9279 23.0275C27.9279 24.4689 27.4174 25.6701 26.3964 26.6311C25.3453 27.6221 23.9639 28.1176 22.2522 28.1176H22.2072C20.5555 28.1176 19.2192 27.6221 18.1982 26.6311C17.1771 25.6401 16.6666 24.3938 16.6666 22.8923ZM17.2522 62.3067V32.2167H27.2522V62.3067H17.2522ZM32.7928 62.3067H42.7928V45.5049C42.7928 44.4539 42.9129 43.6431 43.1531 43.0725C43.5735 42.0515 44.2117 41.1881 45.0675 40.4824C45.9234 39.7767 46.9969 39.4239 48.2882 39.4239C51.6516 39.4239 53.3333 41.6911 53.3333 46.2257V62.3067H63.3333V45.0545C63.3333 40.61 62.2823 37.2392 60.1801 34.9419C58.078 32.6446 55.3003 31.4959 51.8468 31.4959C47.9729 31.4959 44.9549 33.1626 42.7928 36.4959V36.586H42.7477L42.7928 36.4959V32.2167H32.7928C32.8528 33.1776 32.8828 36.1656 32.8828 41.1806C32.8828 46.1956 32.8528 53.2376 32.7928 62.3067Z" fill="white"/>
</g>
</g>
<defs>
<clipPath id="clip0_1_1498">
<rect width="80" height="80" rx="16" fill="white"/>
</clipPath>
<clipPath id="clip1_1_1498">
<rect width="46.6667" height="46.6667" fill="white" transform="translate(16.6666 16.6667)"/>
</clipPath>
</defs>
</svg>
