<svg width="80" height="80" viewBox="0 0 80 80" fill="none" xmlns="http://www.w3.org/2000/svg">
<rect width="80" height="80" rx="16" fill="url(#paint0_linear_1_1504)"/>
<path fill-rule="evenodd" clip-rule="evenodd" d="M18.1069 39.5778C29.7677 34.4974 37.5434 31.1481 41.434 29.5298C52.5424 24.9095 54.8507 24.1069 56.3551 24.0804C56.686 24.0745 57.4259 24.1565 57.9051 24.5454C58.3098 24.8738 58.4212 25.3173 58.4744 25.6287C58.5277 25.94 58.5941 26.6492 58.5413 27.2033C57.9393 33.5283 55.3346 48.8772 54.0095 55.9613C53.4488 58.9588 52.3447 59.9638 51.2759 60.0622C48.953 60.276 47.1891 58.5271 44.9393 57.0523C41.4188 54.7446 39.4299 53.308 36.0126 51.0561C32.0634 48.4536 34.6235 47.0232 36.8742 44.6855C37.4632 44.0738 47.6978 34.7646 47.8959 33.9201C47.9207 33.8145 47.9437 33.4208 47.7098 33.2129C47.4759 33.005 47.1307 33.0761 46.8816 33.1326C46.5285 33.2128 40.9044 36.9301 30.0094 44.2846C28.413 45.3807 26.9671 45.9148 25.6715 45.8869C24.2433 45.856 21.496 45.0793 19.4537 44.4154C16.9487 43.6012 14.9578 43.1707 15.1311 41.7878C15.2214 41.0675 16.2133 40.3308 18.1069 39.5778Z" fill="white"/>
<defs>
<linearGradient id="paint0_linear_1_1504" x1="40" y1="0" x2="40" y2="79.4067" gradientUnits="userSpaceOnUse">
<stop stop-color="#2AABEE"/>
<stop offset="1" stop-color="#229ED9"/>
</linearGradient>
</defs>
</svg>
