<svg width="80" height="80" viewBox="0 0 80 80" fill="none" xmlns="http://www.w3.org/2000/svg">
<rect width="80" height="80" rx="16" fill="#FF0000"/>
<path d="M78.3522 20.7644C77.4296 17.3377 74.7278 14.6359 71.3012 13.7133C65.0409 12 39.9998 12 39.9998 12C39.9998 12 14.9587 12 8.69848 13.6474C5.3377 14.57 2.57001 17.3377 1.64744 20.7644C0 27.0246 0 40.0065 0 40.0065C0 40.0065 0 53.0542 1.64744 59.2486C2.57001 62.6752 5.27181 65.377 8.69848 66.2996C15.0246 68.0129 39.9998 68.0129 39.9998 68.0129C39.9998 68.0129 65.0409 68.0129 71.3012 66.3655C74.7278 65.4429 77.4296 62.7411 78.3522 59.3145C79.9997 53.0542 79.9997 40.0724 79.9997 40.0724C79.9997 40.0724 80.0656 27.0246 78.3522 20.7644Z" fill="#FF0000"/>
<path d="M32.0262 51.9999L52.8499 40.0065L32.0262 28.0132V51.9999Z" fill="white"/>
</svg>
