<svg width="375" height="69" viewBox="0 0 375 69" fill="none" xmlns="http://www.w3.org/2000/svg">
<g filter="url(#filter0_d_1_627)">
<rect width="375" height="50" fill="white"/>
<g clip-path="url(#clip0_1_627)">
<path d="M71.1535 32.5006H65.936V18.0161H71.1747C73.2617 18.0161 74.9835 18.6632 76.3402 19.9572C77.6968 21.2513 78.3741 23.028 78.3719 25.2874C78.3719 27.534 77.6903 29.2977 76.3272 30.5786C74.964 31.8594 73.2395 32.5001 71.1535 32.5006ZM68.4408 30.2508H71.0706C72.4333 30.2508 73.5567 29.8265 74.4409 28.9779C75.3251 28.1293 75.7667 26.9002 75.7656 25.2906C75.7656 23.6703 75.3275 22.4274 74.4515 21.5619C73.5754 20.6963 72.4552 20.2641 71.091 20.2651H68.4408V30.2508Z" fill="#121B64"/>
<path d="M26.5039 32.5006H24V18.0161H33.203V20.3232H26.5039V24.3884H32.5179V26.6557H26.5039V32.5006Z" fill="#121B64"/>
<path d="M64.3406 20.3041V18.0161H57.0239L56.798 18.3184L55.2002 20.4529V32.4998H64.3406V30.2118H57.7041V26.3709H63.7148V24.1442H57.7041V20.3041H64.3406Z" fill="#121B64"/>
<path d="M37.3455 32.5006H34.7993V18.0161H37.3455V32.5006Z" fill="#121B64"/>
<path d="M48.2372 25.666L46.7305 27.5013L46.6492 27.5936L46.6387 27.6056C48.4949 29.7981 50.7021 32.0328 53.6002 32.4647V29.8975C51.6002 29.4305 49.9098 27.6644 48.2372 25.666Z" fill="#121B64"/>
<path d="M44.3205 24.7907L45.8443 22.9363L45.9052 22.8639L45.9142 22.8536C43.9507 20.556 41.7426 18.4621 38.9404 18.0469V20.6101C40.9746 21.0628 42.6593 22.8114 44.3205 24.7907Z" fill="#121B64"/>
<path d="M51.7266 17.5L52.1427 18.426L52.0541 18.4602L51.9305 18.5088L51.8103 18.5597C51.7339 18.5915 51.6583 18.6257 51.5835 18.6599L51.4795 18.7084C51.4356 18.7291 51.3925 18.7506 51.3495 18.7721L51.2495 18.823L51.1203 18.8906C51.0878 18.9081 51.0553 18.9256 51.0236 18.9439L50.8944 19.0163L50.8033 19.0696L50.6717 19.1492L50.6132 19.1858C50.5194 19.2441 50.4268 19.3038 50.3352 19.3648L50.2613 19.4141C50.2182 19.4427 50.1751 19.473 50.1321 19.5032L50.0508 19.5621C50.0085 19.5915 49.9695 19.6217 49.9256 19.6519L49.8444 19.7148L49.7208 19.8079L49.6396 19.8699C49.5973 19.9025 49.5583 19.9352 49.5136 19.9686L49.4616 20.0107C49.3754 20.0807 49.2901 20.1516 49.2048 20.2239L49.1332 20.2844L49.013 20.3862L48.9317 20.4586L48.8195 20.5597L48.7383 20.6352L48.6286 20.7371L48.5473 20.8166L48.4408 20.9185L48.3531 21.0044C48.2921 21.064 48.232 21.1237 48.1718 21.1842C48.1418 21.2144 48.1109 21.2446 48.0816 21.2749C48.0524 21.3051 48.0166 21.3409 47.9849 21.3743L47.8947 21.4674L47.8021 21.5644L47.7062 21.6591L47.6176 21.7538L47.5184 21.8604L47.4372 21.9471C47.3916 21.9964 47.3469 22.0465 47.3014 22.0967L47.2202 22.1897L47.0942 22.3329L47.0227 22.4125L46.9178 22.5342L46.8471 22.6138C46.8114 22.6551 46.7756 22.6933 46.7407 22.7371L46.6748 22.8166L46.5603 22.9511L46.5058 23.0147L46.3433 23.2128L46.2823 23.2852L44.6854 25.2271L44.6455 25.2757C44.0141 26.0418 43.264 26.9264 42.5017 27.6774L42.4887 27.6901C42.4293 27.749 42.37 27.8063 42.3099 27.8628L42.2895 27.8827C42.227 27.9423 42.1636 28.0004 42.101 28.0577L42.0888 28.0688C42.0287 28.1237 41.9693 28.177 41.9092 28.2279L41.8864 28.2478C41.8296 28.2979 41.7719 28.3465 41.7133 28.3958L41.6784 28.4212C41.6231 28.4666 41.5687 28.5111 41.5159 28.5549L41.4752 28.5883L41.3127 28.7124L41.268 28.7474C41.2127 28.7888 41.1566 28.827 41.1014 28.8691L41.0599 28.8986C41.0095 28.9344 40.9583 28.9694 40.9071 29.0036L40.8503 29.0426C40.795 29.0792 40.7389 29.1142 40.6877 29.1492L40.643 29.1778C40.5902 29.2104 40.5374 29.2414 40.4805 29.2717L40.426 29.3043C40.3756 29.3329 40.3244 29.3608 40.2732 29.3838L40.2107 29.4173C40.1562 29.4459 40.101 29.473 40.0481 29.4968L39.9953 29.5223C39.9376 29.5493 39.8791 29.5748 39.8214 29.6018L39.7751 29.6225C39.7231 29.644 39.6694 29.6647 39.6166 29.6854L39.5532 29.71C39.5142 29.7243 39.4752 29.7379 39.4362 29.7506L39.3793 29.7697L39.3281 29.788L39.2135 29.8214L39.1534 29.8389L39.1005 29.854C39.0477 29.8683 38.9949 29.8803 38.938 29.8922V32.461C39.2157 32.4209 39.4907 32.3641 39.7612 32.2908H39.7726C39.8474 32.2701 39.9214 32.2486 39.9953 32.2255L40.053 32.208C40.1213 32.1866 40.1887 32.1635 40.2562 32.1396L40.3285 32.115L40.5227 32.0418L40.5983 32.0115C40.6617 31.9861 40.7251 31.9598 40.7877 31.932L40.8624 31.8994L41.0502 31.8126L41.1184 31.7792C41.1818 31.7482 41.246 31.7164 41.3094 31.6838L41.3614 31.6551C41.4297 31.6193 41.4972 31.5827 41.5646 31.5446L41.5711 31.5406C41.8117 31.4043 42.0468 31.2574 42.2765 31.0998C42.3399 31.0569 42.4025 31.0123 42.4643 30.9678L42.5187 30.9288C42.5756 30.8882 42.6317 30.8492 42.687 30.8039L42.7568 30.7514C42.811 30.7111 42.8638 30.6697 42.9153 30.6273L42.9917 30.5668C43.0429 30.5262 43.0933 30.4873 43.1437 30.4427L43.225 30.3767C43.2745 30.3353 43.3241 30.2971 43.3729 30.2502L43.4541 30.1818L43.6004 30.0521L43.6752 29.9829L43.8231 29.8477L43.8865 29.7864C44.0582 29.6273 44.2273 29.4615 44.3936 29.2892L44.4611 29.22C44.5025 29.1778 44.5423 29.134 44.5854 29.0903L44.6756 28.9956L44.7926 28.8715L44.8894 28.7673C44.9267 28.7275 44.9633 28.6877 44.9999 28.6464C45.0365 28.605 45.0673 28.5732 45.1007 28.5358L45.2055 28.4212L45.3103 28.3035L45.4111 28.1889L45.5208 28.0632L45.6143 27.9558C45.6541 27.9097 45.6955 27.8636 45.7329 27.8182C45.7703 27.7729 45.789 27.7522 45.8142 27.7196L45.9459 27.5605L46.0149 27.4809L46.2149 27.2422L46.2921 27.15L47.8711 25.2271L47.9118 25.1786L48.0654 24.9924L48.1109 24.9376L48.2182 24.8095L48.2832 24.7299C48.3124 24.6941 48.3425 24.6583 48.3726 24.6233C48.4026 24.5883 48.4197 24.5684 48.4425 24.5438L48.5286 24.4427L48.6009 24.3584L48.6822 24.2605L48.757 24.1746L48.8382 24.0792L48.9146 23.9932C48.9415 23.9622 48.9691 23.9312 48.9959 23.901L49.0772 23.8126L49.1584 23.7235L49.2397 23.6352L49.321 23.5469C49.3478 23.5183 49.3746 23.4889 49.4022 23.4602C49.4299 23.4316 49.4559 23.4029 49.4835 23.3751C49.5112 23.3473 49.538 23.3162 49.5648 23.2876L49.6461 23.208L49.7273 23.1213L49.8086 23.0418C49.837 23.0139 49.8647 22.9853 49.8899 22.9566L49.9711 22.8771L50.0597 22.7904L50.1312 22.722C50.1963 22.6599 50.2621 22.5986 50.3271 22.5382L50.3889 22.4809L50.4807 22.4014L50.562 22.3329C50.592 22.3059 50.6221 22.2804 50.653 22.2534L50.7343 22.1842L50.8245 22.1086L50.9057 22.041L50.9976 21.9678L51.0788 21.9025L51.1707 21.8317L51.2519 21.7697C51.2828 21.7466 51.3137 21.7235 51.3454 21.7013L51.4267 21.6408L51.5201 21.5756L51.6014 21.5183L51.6949 21.4562L51.781 21.4014L51.8753 21.3425L51.9622 21.29L52.0573 21.2343L52.1459 21.185L52.241 21.1333C52.2711 21.1165 52.3011 21.1014 52.3312 21.0863L52.4263 21.0378L52.5189 20.994C52.5506 20.9789 52.5815 20.9638 52.6132 20.9503L52.7132 20.9065L52.8123 20.8636C52.8741 20.8381 52.9359 20.8142 52.9976 20.792L53.0789 20.7641L53.1821 20.7283L53.2463 20.8707L53.6014 21.6591L53.6063 21.6527L55.2016 19.5207L56.3297 18.0139L56.3467 17.9916L51.7266 17.5Z" fill="#0FFE89"/>
</g>
<path d="M345 19L333 31" stroke="black" stroke-width="2" stroke-linecap="round" stroke-linejoin="round"/>
<path d="M333 19L345 31" stroke="black" stroke-width="2" stroke-linecap="round" stroke-linejoin="round"/>
</g>
<defs>
<filter id="filter0_d_1_627" x="-15" y="-11" width="405" height="80" filterUnits="userSpaceOnUse" color-interpolation-filters="sRGB">
<feFlood flood-opacity="0" result="BackgroundImageFix"/>
<feColorMatrix in="SourceAlpha" type="matrix" values="0 0 0 0 0 0 0 0 0 0 0 0 0 0 0 0 0 0 127 0" result="hardAlpha"/>
<feOffset dy="4"/>
<feGaussianBlur stdDeviation="7.5"/>
<feComposite in2="hardAlpha" operator="out"/>
<feColorMatrix type="matrix" values="0 0 0 0 0 0 0 0 0 0 0 0 0 0 0 0 0 0 0.1 0"/>
<feBlend mode="normal" in2="BackgroundImageFix" result="effect1_dropShadow_1_627"/>
<feBlend mode="normal" in="SourceGraphic" in2="effect1_dropShadow_1_627" result="shape"/>
</filter>
<clipPath id="clip0_1_627">
<rect width="54.375" height="15" fill="white" transform="translate(24 17.5)"/>
</clipPath>
</defs>
</svg>
