<svg width="1440" height="760" viewBox="0 0 1440 760" fill="none" xmlns="http://www.w3.org/2000/svg">
<path d="M0 0H1440V680C1440 724.183 1404.18 760 1360 760H80C35.8173 760 0 724.183 0 680V0Z" fill="url(#paint0_linear_1_1485)"/>
<path d="M619.833 117.312V124.48H605.497V134.016H618.937V141.184H605.497V160H597.177V117.312H619.833ZM626.976 135.296C629.792 132.693 633.525 131.392 638.176 131.392C642.827 131.392 646.56 132.693 649.376 135.296C652.491 138.112 654.048 141.739 654.048 146.176C654.048 150.571 652.491 154.176 649.376 156.992C646.56 159.595 642.827 160.896 638.176 160.896C633.525 160.896 629.792 159.595 626.976 156.992C623.861 154.176 622.304 150.571 622.304 146.176C622.304 141.739 623.861 138.112 626.976 135.296ZM632.608 151.68C634.101 153.216 635.957 153.984 638.176 153.984C640.395 153.984 642.251 153.216 643.744 151.68C645.237 150.144 645.984 148.309 645.984 146.176C645.984 144 645.237 142.144 643.744 140.608C642.251 139.072 640.395 138.304 638.176 138.304C635.957 138.304 634.101 139.072 632.608 140.608C631.115 142.144 630.368 144 630.368 146.176C630.368 148.309 631.115 150.144 632.608 151.68ZM660.087 113.344H667.895V160H660.087V113.344ZM675.337 113.344H683.145V160H675.337V113.344ZM693.851 135.296C696.667 132.693 700.4 131.392 705.051 131.392C709.702 131.392 713.435 132.693 716.251 135.296C719.366 138.112 720.923 141.739 720.923 146.176C720.923 150.571 719.366 154.176 716.251 156.992C713.435 159.595 709.702 160.896 705.051 160.896C700.4 160.896 696.667 159.595 693.851 156.992C690.736 154.176 689.179 150.571 689.179 146.176C689.179 141.739 690.736 138.112 693.851 135.296ZM699.483 151.68C700.976 153.216 702.832 153.984 705.051 153.984C707.27 153.984 709.126 153.216 710.619 151.68C712.112 150.144 712.859 148.309 712.859 146.176C712.859 144 712.112 142.144 710.619 140.608C709.126 139.072 707.27 138.304 705.051 138.304C702.832 138.304 700.976 139.072 699.483 140.608C697.99 142.144 697.243 144 697.243 146.176C697.243 148.309 697.99 150.144 699.483 151.68ZM747.219 143.68L739.923 160H736.083L722.003 132.288H730.707L738.003 148.288L745.427 132.288H749.011L756.435 148.288L763.731 132.288H772.435L758.355 160H754.515L747.219 143.68ZM791.212 132.288H799.02V147.968C799.02 150.187 799.575 151.808 800.684 152.832C801.751 153.771 803.073 154.24 804.652 154.24C806.231 154.24 807.553 153.771 808.62 152.832C809.729 151.808 810.284 150.187 810.284 147.968V132.288H818.092V149.248C818.092 152.96 816.961 155.797 814.7 157.76C812.311 159.851 808.961 160.896 804.652 160.896C800.343 160.896 796.993 159.851 794.604 157.76C792.343 155.797 791.212 152.96 791.212 149.248V132.288ZM844.469 134.336L840.628 138.88C839.306 137.643 837.791 137.024 836.085 137.024C835.146 137.024 834.399 137.237 833.845 137.664C833.333 138.048 833.077 138.581 833.077 139.264C833.077 140.373 833.909 141.205 835.573 141.76L837.429 142.336C841.055 143.488 843.402 144.811 844.469 146.304C845.407 147.584 845.877 149.12 845.877 150.912C845.877 153.728 844.853 156.075 842.805 157.952C840.671 159.915 837.898 160.896 834.485 160.896C830.175 160.896 826.591 159.36 823.733 156.288L827.829 151.552C829.663 153.685 831.711 154.752 833.973 154.752C835.082 154.752 835.999 154.496 836.725 153.984C837.45 153.429 837.812 152.683 837.812 151.744C837.812 150.464 837.002 149.525 835.381 148.928L833.589 148.288C830.815 147.307 828.831 146.197 827.637 144.96C826.229 143.467 825.525 141.696 825.525 139.648C825.525 137.088 826.485 134.997 828.405 133.376C830.069 132.053 832.479 131.392 835.637 131.392C838.965 131.392 841.909 132.373 844.469 134.336Z" fill="#121B64"/>
<path d="M384.125 237V218.324H387.933C390.807 218.324 393.103 219.052 394.821 220.508C396.949 222.281 398.013 224.671 398.013 227.676C398.013 230.588 396.921 232.977 394.737 234.844C393.841 235.609 392.879 236.16 391.853 236.496C390.826 236.832 389.51 237 387.905 237H384.125ZM386.197 220.284V235.04H388.017C390.238 235.04 392.021 234.48 393.365 233.36C395.045 231.941 395.885 230.047 395.885 227.676C395.885 225.436 395.166 223.644 393.729 222.3C392.291 220.956 390.387 220.284 388.017 220.284H386.197ZM401.312 225.38H403.328V237H401.312V225.38ZM401.312 221.992C401.032 221.712 400.892 221.376 400.892 220.984C400.892 220.592 401.032 220.256 401.312 219.976C401.592 219.696 401.928 219.556 402.32 219.556C402.712 219.556 403.048 219.696 403.328 219.976C403.608 220.256 403.748 220.592 403.748 220.984C403.748 221.376 403.608 221.712 403.328 221.992C403.048 222.272 402.712 222.412 402.32 222.412C401.928 222.412 401.592 222.272 401.312 221.992ZM413.576 227.2L411.924 228.068C411.607 227.284 411.066 226.892 410.3 226.892C409.908 226.892 409.572 227.004 409.292 227.228C409.031 227.452 408.9 227.779 408.9 228.208C408.9 228.6 409.022 228.899 409.264 229.104C409.526 229.291 410.03 229.543 410.776 229.86C412.251 230.476 413.222 231.073 413.688 231.652C414.099 232.156 414.304 232.781 414.304 233.528C414.304 234.704 413.922 235.637 413.156 236.328C412.41 237 411.458 237.336 410.3 237.336C410.076 237.336 409.834 237.308 409.572 237.252C409.311 237.215 408.947 237.121 408.48 236.972C408.032 236.804 407.603 236.496 407.192 236.048C406.782 235.6 406.464 235.04 406.24 234.368L407.976 233.64C408.443 234.909 409.227 235.544 410.328 235.544C410.944 235.544 411.411 235.357 411.728 234.984C412.064 234.611 412.232 234.181 412.232 233.696C412.232 233.435 412.186 233.211 412.092 233.024C412.018 232.819 411.878 232.641 411.672 232.492C411.486 232.343 411.299 232.221 411.112 232.128C410.944 232.035 410.692 231.913 410.356 231.764C408.863 231.111 407.92 230.541 407.528 230.056C407.174 229.608 406.996 229.039 406.996 228.348C406.996 227.34 407.304 226.547 407.92 225.968C408.555 225.389 409.376 225.1 410.384 225.1C411.859 225.1 412.923 225.8 413.576 227.2ZM426.08 226.22V228.628C425.166 227.471 423.952 226.892 422.44 226.892C421.302 226.892 420.331 227.284 419.528 228.068C418.726 228.833 418.324 229.888 418.324 231.232C418.324 232.576 418.726 233.631 419.528 234.396C420.331 235.161 421.292 235.544 422.412 235.544C423.906 235.544 425.156 234.937 426.164 233.724V236.132C425.063 236.935 423.831 237.336 422.468 237.336C420.658 237.336 419.164 236.767 417.988 235.628C416.831 234.471 416.252 233.015 416.252 231.26C416.252 229.487 416.84 228.021 418.016 226.864C419.192 225.688 420.676 225.1 422.468 225.1C423.812 225.1 425.016 225.473 426.08 226.22ZM439.086 235.6C437.928 236.757 436.463 237.336 434.69 237.336C432.916 237.336 431.442 236.757 430.266 235.6C429.108 234.443 428.53 232.987 428.53 231.232C428.53 229.459 429.108 227.993 430.266 226.836C431.442 225.679 432.916 225.1 434.69 225.1C436.463 225.1 437.928 225.679 439.086 226.836C440.262 227.993 440.85 229.459 440.85 231.232C440.85 232.987 440.262 234.443 439.086 235.6ZM437.574 228.04C436.79 227.275 435.828 226.892 434.69 226.892C433.551 226.892 432.58 227.284 431.778 228.068C430.994 228.833 430.602 229.888 430.602 231.232C430.602 232.576 431.003 233.631 431.806 234.396C432.608 235.161 433.57 235.544 434.69 235.544C435.81 235.544 436.771 235.161 437.574 234.396C438.376 233.631 438.778 232.576 438.778 231.232C438.778 229.869 438.376 228.805 437.574 228.04ZM442.261 225.38H444.501L447.973 233.22L451.445 225.38H453.685L447.973 237.756L442.261 225.38ZM464.432 233.108L466.112 234.032C465.72 234.779 465.244 235.404 464.684 235.908C463.62 236.86 462.332 237.336 460.82 237.336C459.252 237.336 457.899 236.832 456.76 235.824C455.64 234.797 455.08 233.276 455.08 231.26C455.08 229.487 455.584 228.021 456.592 226.864C457.619 225.688 458.991 225.1 460.708 225.1C462.65 225.1 464.115 225.809 465.104 227.228C465.888 228.348 466.252 229.804 466.196 231.596H457.152C457.171 232.772 457.535 233.724 458.244 234.452C458.954 235.18 459.822 235.544 460.848 235.544C461.763 235.544 462.556 235.264 463.228 234.704C463.751 234.256 464.152 233.724 464.432 233.108ZM457.292 229.916H464.124C463.956 229.001 463.555 228.273 462.92 227.732C462.304 227.172 461.567 226.892 460.708 226.892C459.868 226.892 459.122 227.181 458.468 227.76C457.834 228.32 457.442 229.039 457.292 229.916ZM469.289 237V225.38H471.305V226.64C471.958 225.613 472.835 225.1 473.937 225.1C474.497 225.1 475.094 225.259 475.729 225.576L474.777 227.396C474.403 227.135 474.011 227.004 473.601 227.004C472.891 227.004 472.35 227.247 471.977 227.732C471.529 228.329 471.305 229.375 471.305 230.868V237H469.289ZM488.197 227.228H486.181V237H484.165V227.228H482.933V225.38H484.165V221.18H486.181V225.38H488.197V227.228ZM490.097 237V216.588H492.113V226.724C492.935 225.641 494.045 225.1 495.445 225.1C496.939 225.1 498.049 225.632 498.777 226.696C499.225 227.349 499.449 228.385 499.449 229.804V237H497.433V229.86C497.433 228.908 497.256 228.199 496.901 227.732C496.472 227.172 495.837 226.892 494.997 226.892C494.139 226.892 493.457 227.191 492.953 227.788C492.393 228.441 492.113 229.487 492.113 230.924V237H490.097ZM511.6 233.108L513.28 234.032C512.888 234.779 512.412 235.404 511.852 235.908C510.788 236.86 509.5 237.336 507.988 237.336C506.42 237.336 505.067 236.832 503.928 235.824C502.808 234.797 502.248 233.276 502.248 231.26C502.248 229.487 502.752 228.021 503.76 226.864C504.787 225.688 506.159 225.1 507.876 225.1C509.818 225.1 511.283 225.809 512.272 227.228C513.056 228.348 513.42 229.804 513.364 231.596H504.32C504.339 232.772 504.703 233.724 505.412 234.452C506.122 235.18 506.99 235.544 508.016 235.544C508.931 235.544 509.724 235.264 510.396 234.704C510.919 234.256 511.32 233.724 511.6 233.108ZM504.46 229.916H511.292C511.124 229.001 510.723 228.273 510.088 227.732C509.472 227.172 508.735 226.892 507.876 226.892C507.036 226.892 506.29 227.181 505.636 227.76C505.002 228.32 504.61 229.039 504.46 229.916ZM525.008 235.376V243.44H522.992V225.38H525.008V227.004C526.035 225.735 527.36 225.1 528.984 225.1C530.72 225.1 532.092 225.716 533.1 226.948C534.127 228.161 534.64 229.599 534.64 231.26C534.64 232.94 534.136 234.377 533.128 235.572C532.12 236.748 530.767 237.336 529.068 237.336C527.369 237.336 526.016 236.683 525.008 235.376ZM528.788 235.544C529.927 235.544 530.841 235.133 531.532 234.312C532.223 233.472 532.568 232.455 532.568 231.26C532.568 229.916 532.185 228.852 531.42 228.068C530.655 227.284 529.768 226.892 528.76 226.892C527.752 226.892 526.856 227.284 526.072 228.068C525.288 228.852 524.896 229.907 524.896 231.232C524.896 232.445 525.251 233.472 525.96 234.312C526.688 235.133 527.631 235.544 528.788 235.544ZM546.634 227.032V225.38H548.65V237H546.634V235.376C545.626 236.683 544.301 237.336 542.658 237.336C541.09 237.336 539.756 236.795 538.654 235.712C537.553 234.629 537.002 233.117 537.002 231.176C537.002 229.272 537.544 227.788 538.626 226.724C539.728 225.641 541.072 225.1 542.658 225.1C544.338 225.1 545.664 225.744 546.634 227.032ZM542.882 226.892C541.818 226.892 540.913 227.275 540.166 228.04C539.438 228.787 539.074 229.832 539.074 231.176C539.074 232.464 539.41 233.519 540.082 234.34C540.773 235.143 541.706 235.544 542.882 235.544C544.058 235.544 544.992 235.124 545.682 234.284C546.392 233.444 546.746 232.417 546.746 231.204C546.746 229.823 546.354 228.759 545.57 228.012C544.786 227.265 543.89 226.892 542.882 226.892ZM558.908 227.2L557.256 228.068C556.939 227.284 556.398 226.892 555.632 226.892C555.24 226.892 554.904 227.004 554.624 227.228C554.363 227.452 554.232 227.779 554.232 228.208C554.232 228.6 554.354 228.899 554.596 229.104C554.858 229.291 555.362 229.543 556.108 229.86C557.583 230.476 558.554 231.073 559.02 231.652C559.431 232.156 559.636 232.781 559.636 233.528C559.636 234.704 559.254 235.637 558.488 236.328C557.742 237 556.79 237.336 555.632 237.336C555.408 237.336 555.166 237.308 554.904 237.252C554.643 237.215 554.279 237.121 553.812 236.972C553.364 236.804 552.935 236.496 552.524 236.048C552.114 235.6 551.796 235.04 551.572 234.368L553.308 233.64C553.775 234.909 554.559 235.544 555.66 235.544C556.276 235.544 556.743 235.357 557.06 234.984C557.396 234.611 557.564 234.181 557.564 233.696C557.564 233.435 557.518 233.211 557.424 233.024C557.35 232.819 557.21 232.641 557.004 232.492C556.818 232.343 556.631 232.221 556.444 232.128C556.276 232.035 556.024 231.913 555.688 231.764C554.195 231.111 553.252 230.541 552.86 230.056C552.506 229.608 552.328 229.039 552.328 228.348C552.328 227.34 552.636 226.547 553.252 225.968C553.887 225.389 554.708 225.1 555.716 225.1C557.191 225.1 558.255 225.8 558.908 227.2ZM568.752 227.2L567.1 228.068C566.783 227.284 566.242 226.892 565.476 226.892C565.084 226.892 564.748 227.004 564.468 227.228C564.207 227.452 564.076 227.779 564.076 228.208C564.076 228.6 564.198 228.899 564.44 229.104C564.702 229.291 565.206 229.543 565.952 229.86C567.427 230.476 568.398 231.073 568.864 231.652C569.275 232.156 569.48 232.781 569.48 233.528C569.48 234.704 569.098 235.637 568.332 236.328C567.586 237 566.634 237.336 565.476 237.336C565.252 237.336 565.01 237.308 564.748 237.252C564.487 237.215 564.123 237.121 563.656 236.972C563.208 236.804 562.779 236.496 562.368 236.048C561.958 235.6 561.64 235.04 561.416 234.368L563.152 233.64C563.619 234.909 564.403 235.544 565.504 235.544C566.12 235.544 566.587 235.357 566.904 234.984C567.24 234.611 567.408 234.181 567.408 233.696C567.408 233.435 567.362 233.211 567.268 233.024C567.194 232.819 567.054 232.641 566.848 232.492C566.662 232.343 566.475 232.221 566.288 232.128C566.12 232.035 565.868 231.913 565.532 231.764C564.039 231.111 563.096 230.541 562.704 230.056C562.35 229.608 562.172 229.039 562.172 228.348C562.172 227.34 562.48 226.547 563.096 225.968C563.731 225.389 564.552 225.1 565.56 225.1C567.035 225.1 568.099 225.8 568.752 227.2ZM572.156 225.38H574.172V237H572.156V225.38ZM572.156 221.992C571.876 221.712 571.736 221.376 571.736 220.984C571.736 220.592 571.876 220.256 572.156 219.976C572.436 219.696 572.772 219.556 573.164 219.556C573.556 219.556 573.892 219.696 574.172 219.976C574.452 220.256 574.592 220.592 574.592 220.984C574.592 221.376 574.452 221.712 574.172 221.992C573.892 222.272 573.556 222.412 573.164 222.412C572.772 222.412 572.436 222.272 572.156 221.992ZM587.808 235.6C586.651 236.757 585.186 237.336 583.412 237.336C581.639 237.336 580.164 236.757 578.988 235.6C577.831 234.443 577.252 232.987 577.252 231.232C577.252 229.459 577.831 227.993 578.988 226.836C580.164 225.679 581.639 225.1 583.412 225.1C585.186 225.1 586.651 225.679 587.808 226.836C588.984 227.993 589.572 229.459 589.572 231.232C589.572 232.987 588.984 234.443 587.808 235.6ZM586.296 228.04C585.512 227.275 584.551 226.892 583.412 226.892C582.274 226.892 581.303 227.284 580.5 228.068C579.716 228.833 579.324 229.888 579.324 231.232C579.324 232.576 579.726 233.631 580.528 234.396C581.331 235.161 582.292 235.544 583.412 235.544C584.532 235.544 585.494 235.161 586.296 234.396C587.099 233.631 587.5 232.576 587.5 231.232C587.5 229.869 587.099 228.805 586.296 228.04ZM592.664 237V225.38H594.68V226.724C595.501 225.641 596.612 225.1 598.012 225.1C599.505 225.1 600.616 225.632 601.344 226.696C601.792 227.349 602.016 228.385 602.016 229.804V237H600V229.86C600 228.908 599.822 228.199 599.468 227.732C599.038 227.172 598.404 226.892 597.564 226.892C596.705 226.892 596.024 227.191 595.52 227.788C594.96 228.441 594.68 229.487 594.68 230.924V237H592.664ZM604.584 240.724L606.88 234.256L608.728 234.928L605.9 241.256L604.584 240.724ZM628.659 233.108L630.339 234.032C629.947 234.779 629.471 235.404 628.911 235.908C627.847 236.86 626.559 237.336 625.047 237.336C623.479 237.336 622.126 236.832 620.987 235.824C619.867 234.797 619.307 233.276 619.307 231.26C619.307 229.487 619.811 228.021 620.819 226.864C621.846 225.688 623.218 225.1 624.935 225.1C626.876 225.1 628.342 225.809 629.331 227.228C630.115 228.348 630.479 229.804 630.423 231.596H621.379C621.398 232.772 621.762 233.724 622.471 234.452C623.18 235.18 624.048 235.544 625.075 235.544C625.99 235.544 626.783 235.264 627.455 234.704C627.978 234.256 628.379 233.724 628.659 233.108ZM621.519 229.916H628.351C628.183 229.001 627.782 228.273 627.147 227.732C626.531 227.172 625.794 226.892 624.935 226.892C624.095 226.892 623.348 227.181 622.695 227.76C622.06 228.32 621.668 229.039 621.519 229.916ZM631.835 237L636.791 230.784L632.563 225.38H635.027L638.023 229.328L641.075 225.38H643.539L639.283 230.812L644.099 237H641.635L637.967 232.268L634.299 237H631.835ZM648.246 235.376V243.44H646.23V225.38H648.246V227.004C649.273 225.735 650.598 225.1 652.222 225.1C653.958 225.1 655.33 225.716 656.338 226.948C657.365 228.161 657.878 229.599 657.878 231.26C657.878 232.94 657.374 234.377 656.366 235.572C655.358 236.748 654.005 237.336 652.306 237.336C650.608 237.336 649.254 236.683 648.246 235.376ZM652.026 235.544C653.165 235.544 654.08 235.133 654.77 234.312C655.461 233.472 655.806 232.455 655.806 231.26C655.806 229.916 655.424 228.852 654.658 228.068C653.893 227.284 653.006 226.892 651.998 226.892C650.99 226.892 650.094 227.284 649.31 228.068C648.526 228.852 648.134 229.907 648.134 231.232C648.134 232.445 648.489 233.472 649.198 234.312C649.926 235.133 650.869 235.544 652.026 235.544ZM669.592 233.108L671.272 234.032C670.88 234.779 670.404 235.404 669.844 235.908C668.78 236.86 667.492 237.336 665.98 237.336C664.412 237.336 663.059 236.832 661.92 235.824C660.8 234.797 660.24 233.276 660.24 231.26C660.24 229.487 660.744 228.021 661.752 226.864C662.779 225.688 664.151 225.1 665.868 225.1C667.81 225.1 669.275 225.809 670.264 227.228C671.048 228.348 671.412 229.804 671.356 231.596H662.312C662.331 232.772 662.695 233.724 663.404 234.452C664.114 235.18 664.982 235.544 666.008 235.544C666.923 235.544 667.716 235.264 668.388 234.704C668.911 234.256 669.312 233.724 669.592 233.108ZM662.452 229.916H669.284C669.116 229.001 668.715 228.273 668.08 227.732C667.464 227.172 666.727 226.892 665.868 226.892C665.028 226.892 664.282 227.181 663.628 227.76C662.994 228.32 662.602 229.039 662.452 229.916ZM674.449 237V225.38H676.465V226.64C677.118 225.613 677.996 225.1 679.097 225.1C679.657 225.1 680.254 225.259 680.889 225.576L679.937 227.396C679.564 227.135 679.172 227.004 678.761 227.004C678.052 227.004 677.51 227.247 677.137 227.732C676.689 228.329 676.465 229.375 676.465 230.868V237H674.449ZM687.369 227.228H685.353V237H683.337V227.228H682.105V225.38H683.337V221.18H685.353V225.38H687.369V227.228ZM689.269 225.38H691.285V237H689.269V225.38ZM689.269 221.992C688.989 221.712 688.849 221.376 688.849 220.984C688.849 220.592 688.989 220.256 689.269 219.976C689.549 219.696 689.885 219.556 690.277 219.556C690.669 219.556 691.005 219.696 691.285 219.976C691.565 220.256 691.705 220.592 691.705 220.984C691.705 221.376 691.565 221.712 691.285 221.992C691.005 222.272 690.669 222.412 690.277 222.412C689.885 222.412 689.549 222.272 689.269 221.992ZM701.533 227.2L699.881 228.068C699.564 227.284 699.023 226.892 698.257 226.892C697.865 226.892 697.529 227.004 697.249 227.228C696.988 227.452 696.857 227.779 696.857 228.208C696.857 228.6 696.979 228.899 697.221 229.104C697.483 229.291 697.987 229.543 698.733 229.86C700.208 230.476 701.179 231.073 701.645 231.652C702.056 232.156 702.261 232.781 702.261 233.528C702.261 234.704 701.879 235.637 701.113 236.328C700.367 237 699.415 237.336 698.257 237.336C698.033 237.336 697.791 237.308 697.529 237.252C697.268 237.215 696.904 237.121 696.437 236.972C695.989 236.804 695.56 236.496 695.149 236.048C694.739 235.6 694.421 235.04 694.197 234.368L695.933 233.64C696.4 234.909 697.184 235.544 698.285 235.544C698.901 235.544 699.368 235.357 699.685 234.984C700.021 234.611 700.189 234.181 700.189 233.696C700.189 233.435 700.143 233.211 700.049 233.024C699.975 232.819 699.835 232.641 699.629 232.492C699.443 232.343 699.256 232.221 699.069 232.128C698.901 232.035 698.649 231.913 698.313 231.764C696.82 231.111 695.877 230.541 695.485 230.056C695.131 229.608 694.953 229.039 694.953 228.348C694.953 227.34 695.261 226.547 695.877 225.968C696.512 225.389 697.333 225.1 698.341 225.1C699.816 225.1 700.88 225.8 701.533 227.2ZM713.561 233.108L715.241 234.032C714.849 234.779 714.373 235.404 713.813 235.908C712.749 236.86 711.461 237.336 709.949 237.336C708.381 237.336 707.028 236.832 705.889 235.824C704.769 234.797 704.209 233.276 704.209 231.26C704.209 229.487 704.713 228.021 705.721 226.864C706.748 225.688 708.12 225.1 709.837 225.1C711.779 225.1 713.244 225.809 714.233 227.228C715.017 228.348 715.381 229.804 715.325 231.596H706.281C706.3 232.772 706.664 233.724 707.373 234.452C708.083 235.18 708.951 235.544 709.977 235.544C710.892 235.544 711.685 235.264 712.357 234.704C712.88 234.256 713.281 233.724 713.561 233.108ZM706.421 229.916H713.253C713.085 229.001 712.684 228.273 712.049 227.732C711.433 227.172 710.696 226.892 709.837 226.892C708.997 226.892 708.251 227.181 707.597 227.76C706.963 228.32 706.571 229.039 706.421 229.916ZM717.186 240.724L719.482 234.256L721.33 234.928L718.502 241.256L717.186 240.724ZM741.54 227.032V225.38H743.556V237H741.54V235.376C740.532 236.683 739.207 237.336 737.564 237.336C735.996 237.336 734.662 236.795 733.56 235.712C732.459 234.629 731.908 233.117 731.908 231.176C731.908 229.272 732.45 227.788 733.532 226.724C734.634 225.641 735.978 225.1 737.564 225.1C739.244 225.1 740.57 225.744 741.54 227.032ZM737.788 226.892C736.724 226.892 735.819 227.275 735.072 228.04C734.344 228.787 733.98 229.832 733.98 231.176C733.98 232.464 734.316 233.519 734.988 234.34C735.679 235.143 736.612 235.544 737.788 235.544C738.964 235.544 739.898 235.124 740.588 234.284C741.298 233.444 741.652 232.417 741.652 231.204C741.652 229.823 741.26 228.759 740.476 228.012C739.692 227.265 738.796 226.892 737.788 226.892ZM747.375 237V225.38H749.391V226.724C750.212 225.641 751.323 225.1 752.723 225.1C754.216 225.1 755.327 225.632 756.055 226.696C756.503 227.349 756.727 228.385 756.727 229.804V237H754.711V229.86C754.711 228.908 754.533 228.199 754.179 227.732C753.749 227.172 753.115 226.892 752.275 226.892C751.416 226.892 750.735 227.191 750.231 227.788C749.671 228.441 749.391 229.487 749.391 230.924V237H747.375ZM769.431 227.032V216.588H771.447V237H769.431V235.376C768.423 236.683 767.098 237.336 765.455 237.336C763.887 237.336 762.552 236.795 761.451 235.712C760.35 234.629 759.799 233.117 759.799 231.176C759.799 229.272 760.34 227.788 761.423 226.724C762.524 225.641 763.868 225.1 765.455 225.1C767.135 225.1 768.46 225.744 769.431 227.032ZM765.679 226.892C764.615 226.892 763.71 227.275 762.963 228.04C762.235 228.787 761.871 229.832 761.871 231.176C761.871 232.464 762.207 233.519 762.879 234.34C763.57 235.143 764.503 235.544 765.679 235.544C766.855 235.544 767.788 235.124 768.479 234.284C769.188 233.444 769.543 232.417 769.543 231.204C769.543 229.823 769.151 228.759 768.367 228.012C767.583 227.265 766.687 226.892 765.679 226.892ZM780.12 225.38H782.36L785.832 233.22L789.304 225.38H791.544L785.832 237.756L780.12 225.38ZM802.572 227.032V225.38H804.588V237H802.572V235.376C801.564 236.683 800.238 237.336 798.596 237.336C797.028 237.336 795.693 236.795 794.592 235.712C793.49 234.629 792.94 233.117 792.94 231.176C792.94 229.272 793.481 227.788 794.564 226.724C795.665 225.641 797.009 225.1 798.596 225.1C800.276 225.1 801.601 225.744 802.572 227.032ZM798.82 226.892C797.756 226.892 796.85 227.275 796.104 228.04C795.376 228.787 795.012 229.832 795.012 231.176C795.012 232.464 795.348 233.519 796.02 234.34C796.71 235.143 797.644 235.544 798.82 235.544C799.996 235.544 800.929 235.124 801.62 234.284C802.329 233.444 802.684 232.417 802.684 231.204C802.684 229.823 802.292 228.759 801.508 228.012C800.724 227.265 799.828 226.892 798.82 226.892ZM808.406 216.588H810.422V237H808.406V216.588ZM816.246 225.38V232.156C816.246 233.332 816.433 234.163 816.806 234.648C817.273 235.245 817.954 235.544 818.85 235.544C819.746 235.544 820.428 235.245 820.894 234.648C821.268 234.163 821.454 233.332 821.454 232.156V225.38H823.47V232.38C823.47 233.948 823.116 235.115 822.406 235.88C821.492 236.851 820.306 237.336 818.85 237.336C817.394 237.336 816.209 236.851 815.294 235.88C814.585 235.115 814.23 233.948 814.23 232.38V225.38H816.246ZM835.897 233.108L837.577 234.032C837.185 234.779 836.709 235.404 836.149 235.908C835.085 236.86 833.797 237.336 832.285 237.336C830.717 237.336 829.364 236.832 828.225 235.824C827.105 234.797 826.545 233.276 826.545 231.26C826.545 229.487 827.049 228.021 828.057 226.864C829.084 225.688 830.456 225.1 832.173 225.1C834.114 225.1 835.58 225.809 836.569 227.228C837.353 228.348 837.717 229.804 837.661 231.596H828.617C828.636 232.772 829 233.724 829.709 234.452C830.418 235.18 831.286 235.544 832.313 235.544C833.228 235.544 834.021 235.264 834.693 234.704C835.216 234.256 835.617 233.724 835.897 233.108ZM828.757 229.916H835.589C835.421 229.001 835.02 228.273 834.385 227.732C833.769 227.172 833.032 226.892 832.173 226.892C831.333 226.892 830.586 227.181 829.933 227.76C829.298 228.32 828.906 229.039 828.757 229.916ZM847.194 227.2L845.542 228.068C845.224 227.284 844.683 226.892 843.918 226.892C843.526 226.892 843.19 227.004 842.91 227.228C842.648 227.452 842.518 227.779 842.518 228.208C842.518 228.6 842.639 228.899 842.882 229.104C843.143 229.291 843.647 229.543 844.394 229.86C845.868 230.476 846.839 231.073 847.306 231.652C847.716 232.156 847.922 232.781 847.922 233.528C847.922 234.704 847.539 235.637 846.774 236.328C846.027 237 845.075 237.336 843.918 237.336C843.694 237.336 843.451 237.308 843.19 237.252C842.928 237.215 842.564 237.121 842.098 236.972C841.65 236.804 841.22 236.496 840.81 236.048C840.399 235.6 840.082 235.04 839.858 234.368L841.594 233.64C842.06 234.909 842.844 235.544 843.946 235.544C844.562 235.544 845.028 235.357 845.346 234.984C845.682 234.611 845.85 234.181 845.85 233.696C845.85 233.435 845.803 233.211 845.71 233.024C845.635 232.819 845.495 232.641 845.29 232.492C845.103 232.343 844.916 232.221 844.73 232.128C844.562 232.035 844.31 231.913 843.974 231.764C842.48 231.111 841.538 230.541 841.146 230.056C840.791 229.608 840.614 229.039 840.614 228.348C840.614 227.34 840.922 226.547 841.538 225.968C842.172 225.389 842.994 225.1 844.002 225.1C845.476 225.1 846.54 225.8 847.194 227.2ZM861.221 227.228H859.205V237H857.189V227.228H855.957V225.38H857.189V221.18H859.205V225.38H861.221V227.228ZM863.121 237V216.588H865.137V226.724C865.958 225.641 867.069 225.1 868.469 225.1C869.962 225.1 871.073 225.632 871.801 226.696C872.249 227.349 872.473 228.385 872.473 229.804V237H870.457V229.86C870.457 228.908 870.279 228.199 869.925 227.732C869.495 227.172 868.861 226.892 868.021 226.892C867.162 226.892 866.481 227.191 865.977 227.788C865.417 228.441 865.137 229.487 865.137 230.924V237H863.121ZM885.177 227.032V225.38H887.193V237H885.177V235.376C884.169 236.683 882.844 237.336 881.201 237.336C879.633 237.336 878.298 236.795 877.197 235.712C876.096 234.629 875.545 233.117 875.545 231.176C875.545 229.272 876.086 227.788 877.169 226.724C878.27 225.641 879.614 225.1 881.201 225.1C882.881 225.1 884.206 225.744 885.177 227.032ZM881.425 226.892C880.361 226.892 879.456 227.275 878.709 228.04C877.981 228.787 877.617 229.832 877.617 231.176C877.617 232.464 877.953 233.519 878.625 234.34C879.316 235.143 880.249 235.544 881.425 235.544C882.601 235.544 883.534 235.124 884.225 234.284C884.934 233.444 885.289 232.417 885.289 231.204C885.289 229.823 884.897 228.759 884.113 228.012C883.329 227.265 882.433 226.892 881.425 226.892ZM895.099 227.228H893.083V237H891.067V227.228H889.835V225.38H891.067V221.18H893.083V225.38H895.099V227.228ZM912.439 227.032V216.588H914.455V237H912.439V235.376C911.431 236.683 910.106 237.336 908.463 237.336C906.895 237.336 905.56 236.795 904.459 235.712C903.358 234.629 902.807 233.117 902.807 231.176C902.807 229.272 903.348 227.788 904.431 226.724C905.532 225.641 906.876 225.1 908.463 225.1C910.143 225.1 911.468 225.744 912.439 227.032ZM908.687 226.892C907.623 226.892 906.718 227.275 905.971 228.04C905.243 228.787 904.879 229.832 904.879 231.176C904.879 232.464 905.215 233.519 905.887 234.34C906.578 235.143 907.511 235.544 908.687 235.544C909.863 235.544 910.796 235.124 911.487 234.284C912.196 233.444 912.551 232.417 912.551 231.204C912.551 229.823 912.159 228.759 911.375 228.012C910.591 227.265 909.695 226.892 908.687 226.892ZM918.273 237V225.38H920.289V226.64C920.942 225.613 921.82 225.1 922.921 225.1C923.481 225.1 924.078 225.259 924.713 225.576L923.761 227.396C923.388 227.135 922.996 227.004 922.585 227.004C921.876 227.004 921.334 227.247 920.961 227.732C920.513 228.329 920.289 229.375 920.289 230.868V237H918.273ZM926.558 225.38H928.574V237H926.558V225.38ZM926.558 221.992C926.278 221.712 926.138 221.376 926.138 220.984C926.138 220.592 926.278 220.256 926.558 219.976C926.838 219.696 927.174 219.556 927.566 219.556C927.958 219.556 928.294 219.696 928.574 219.976C928.854 220.256 928.994 220.592 928.994 220.984C928.994 221.376 928.854 221.712 928.574 221.992C928.294 222.272 927.958 222.412 927.566 222.412C927.174 222.412 926.838 222.272 926.558 221.992ZM930.703 225.38H932.943L936.415 233.22L939.887 225.38H942.127L936.415 237.756L930.703 225.38ZM952.874 233.108L954.554 234.032C954.162 234.779 953.686 235.404 953.126 235.908C952.062 236.86 950.774 237.336 949.262 237.336C947.694 237.336 946.34 236.832 945.202 235.824C944.082 234.797 943.522 233.276 943.522 231.26C943.522 229.487 944.026 228.021 945.034 226.864C946.06 225.688 947.432 225.1 949.15 225.1C951.091 225.1 952.556 225.809 953.546 227.228C954.33 228.348 954.694 229.804 954.638 231.596H945.594C945.612 232.772 945.976 233.724 946.686 234.452C947.395 235.18 948.263 235.544 949.29 235.544C950.204 235.544 950.998 235.264 951.67 234.704C952.192 234.256 952.594 233.724 952.874 233.108ZM945.734 229.916H952.566C952.398 229.001 951.996 228.273 951.362 227.732C950.746 227.172 950.008 226.892 949.15 226.892C948.31 226.892 947.563 227.181 946.91 227.76C946.275 228.32 945.883 229.039 945.734 229.916ZM974.093 235.6C972.936 236.757 971.471 237.336 969.697 237.336C967.924 237.336 966.449 236.757 965.273 235.6C964.116 234.443 963.537 232.987 963.537 231.232C963.537 229.459 964.116 227.993 965.273 226.836C966.449 225.679 967.924 225.1 969.697 225.1C971.471 225.1 972.936 225.679 974.093 226.836C975.269 227.993 975.857 229.459 975.857 231.232C975.857 232.987 975.269 234.443 974.093 235.6ZM972.581 228.04C971.797 227.275 970.836 226.892 969.697 226.892C968.559 226.892 967.588 227.284 966.785 228.068C966.001 228.833 965.609 229.888 965.609 231.232C965.609 232.576 966.011 233.631 966.813 234.396C967.616 235.161 968.577 235.544 969.697 235.544C970.817 235.544 971.779 235.161 972.581 234.396C973.384 233.631 973.785 232.576 973.785 231.232C973.785 229.869 973.384 228.805 972.581 228.04ZM980.965 225.38V232.156C980.965 233.332 981.152 234.163 981.525 234.648C981.992 235.245 982.673 235.544 983.569 235.544C984.465 235.544 985.146 235.245 985.613 234.648C985.986 234.163 986.173 233.332 986.173 232.156V225.38H988.189V232.38C988.189 233.948 987.834 235.115 987.125 235.88C986.21 236.851 985.025 237.336 983.569 237.336C982.113 237.336 980.928 236.851 980.013 235.88C979.304 235.115 978.949 233.948 978.949 232.38V225.38H980.965ZM991.992 237V225.38H994.008V226.64C994.661 225.613 995.539 225.1 996.64 225.1C997.2 225.1 997.797 225.259 998.432 225.576L997.48 227.396C997.107 227.135 996.715 227.004 996.304 227.004C995.595 227.004 995.053 227.247 994.68 227.732C994.232 228.329 994.008 229.375 994.008 230.868V237H991.992ZM1010.9 227.228H1008.88V237H1006.87V227.228H1005.64V225.38H1006.87V221.18H1008.88V225.38H1010.9V227.228ZM1021.42 233.108L1023.1 234.032C1022.71 234.779 1022.24 235.404 1021.68 235.908C1020.61 236.86 1019.32 237.336 1017.81 237.336C1016.24 237.336 1014.89 236.832 1013.75 235.824C1012.63 234.797 1012.07 233.276 1012.07 231.26C1012.07 229.487 1012.58 228.021 1013.58 226.864C1014.61 225.688 1015.98 225.1 1017.7 225.1C1019.64 225.1 1021.11 225.809 1022.1 227.228C1022.88 228.348 1023.24 229.804 1023.19 231.596H1014.14C1014.16 232.772 1014.53 233.724 1015.24 234.452C1015.95 235.18 1016.81 235.544 1017.84 235.544C1018.76 235.544 1019.55 235.264 1020.22 234.704C1020.74 234.256 1021.14 233.724 1021.42 233.108ZM1014.28 229.916H1021.12C1020.95 229.001 1020.55 228.273 1019.91 227.732C1019.3 227.172 1018.56 226.892 1017.7 226.892C1016.86 226.892 1016.11 227.181 1015.46 227.76C1014.83 228.32 1014.43 229.039 1014.28 229.916ZM1035.18 227.032V225.38H1037.2V237H1035.18V235.376C1034.18 236.683 1032.85 237.336 1031.21 237.336C1029.64 237.336 1028.31 236.795 1027.2 235.712C1026.1 234.629 1025.55 233.117 1025.55 231.176C1025.55 229.272 1026.09 227.788 1027.18 226.724C1028.28 225.641 1029.62 225.1 1031.21 225.1C1032.89 225.1 1034.21 225.744 1035.18 227.032ZM1031.43 226.892C1030.37 226.892 1029.46 227.275 1028.72 228.04C1027.99 228.787 1027.62 229.832 1027.62 231.176C1027.62 232.464 1027.96 233.519 1028.63 234.34C1029.32 235.143 1030.26 235.544 1031.43 235.544C1032.61 235.544 1033.54 235.124 1034.23 234.284C1034.94 233.444 1035.3 232.417 1035.3 231.204C1035.3 229.823 1034.9 228.759 1034.12 228.012C1033.34 227.265 1032.44 226.892 1031.43 226.892ZM1041.02 237V225.38H1043.04V226.612C1043.73 225.604 1044.69 225.1 1045.92 225.1C1047.32 225.1 1048.37 225.725 1049.08 226.976C1049.89 225.725 1051.05 225.1 1052.58 225.1C1055.1 225.1 1056.36 226.612 1056.36 229.636V237H1054.35V229.944C1054.35 229.384 1054.31 228.917 1054.24 228.544C1054.18 228.152 1053.98 227.779 1053.65 227.424C1053.33 227.069 1052.87 226.892 1052.28 226.892C1050.56 226.892 1049.7 228.105 1049.7 230.532V237H1047.68V230.112C1047.68 227.965 1046.98 226.892 1045.58 226.892C1043.88 226.892 1043.04 228.152 1043.04 230.672V237H1041.02ZM514.423 263.032V261.38H516.439V273H514.423V271.376C513.415 272.683 512.09 273.336 510.447 273.336C508.879 273.336 507.545 272.795 506.443 271.712C505.342 270.629 504.791 269.117 504.791 267.176C504.791 265.272 505.333 263.788 506.415 262.724C507.517 261.641 508.861 261.1 510.447 261.1C512.127 261.1 513.453 261.744 514.423 263.032ZM510.671 262.892C509.607 262.892 508.702 263.275 507.955 264.04C507.227 264.787 506.863 265.832 506.863 267.176C506.863 268.464 507.199 269.519 507.871 270.34C508.562 271.143 509.495 271.544 510.671 271.544C511.847 271.544 512.781 271.124 513.471 270.284C514.181 269.444 514.535 268.417 514.535 267.204C514.535 265.823 514.143 264.759 513.359 264.012C512.575 263.265 511.679 262.892 510.671 262.892ZM520.258 273V261.38H522.274V262.724C523.095 261.641 524.206 261.1 525.606 261.1C527.099 261.1 528.21 261.632 528.938 262.696C529.386 263.349 529.61 264.385 529.61 265.804V273H527.594V265.86C527.594 264.908 527.416 264.199 527.062 263.732C526.632 263.172 525.998 262.892 525.158 262.892C524.299 262.892 523.618 263.191 523.114 263.788C522.554 264.441 522.274 265.487 522.274 266.924V273H520.258ZM542.314 263.032V252.588H544.33V273H542.314V271.376C541.306 272.683 539.981 273.336 538.338 273.336C536.77 273.336 535.435 272.795 534.334 271.712C533.233 270.629 532.682 269.117 532.682 267.176C532.682 265.272 533.223 263.788 534.306 262.724C535.407 261.641 536.751 261.1 538.338 261.1C540.018 261.1 541.343 261.744 542.314 263.032ZM538.562 262.892C537.498 262.892 536.593 263.275 535.846 264.04C535.118 264.787 534.754 265.832 534.754 267.176C534.754 268.464 535.09 269.519 535.762 270.34C536.453 271.143 537.386 271.544 538.562 271.544C539.738 271.544 540.671 271.124 541.362 270.284C542.071 269.444 542.426 268.417 542.426 267.204C542.426 265.823 542.034 264.759 541.25 264.012C540.466 263.265 539.57 262.892 538.562 262.892ZM559.611 263.228H556.755V273H554.739V263.228H553.619V261.38H554.739V256.312C554.739 254.763 555.113 253.671 555.859 253.036C556.457 252.532 557.231 252.28 558.183 252.28C558.687 252.28 559.163 252.364 559.611 252.532V254.492C559.201 254.324 558.762 254.24 558.295 254.24C557.679 254.24 557.25 254.445 557.007 254.856C556.839 255.136 556.755 255.696 556.755 256.536V261.38H559.611V263.228ZM563.426 261.38V268.156C563.426 269.332 563.613 270.163 563.986 270.648C564.453 271.245 565.134 271.544 566.03 271.544C566.926 271.544 567.607 271.245 568.074 270.648C568.447 270.163 568.634 269.332 568.634 268.156V261.38H570.65V268.38C570.65 269.948 570.295 271.115 569.586 271.88C568.671 272.851 567.486 273.336 566.03 273.336C564.574 273.336 563.389 272.851 562.474 271.88C561.765 271.115 561.41 269.948 561.41 268.38V261.38H563.426ZM583.077 269.108L584.757 270.032C584.365 270.779 583.889 271.404 583.329 271.908C582.265 272.86 580.977 273.336 579.465 273.336C577.897 273.336 576.543 272.832 575.405 271.824C574.285 270.797 573.725 269.276 573.725 267.26C573.725 265.487 574.229 264.021 575.237 262.864C576.263 261.688 577.635 261.1 579.353 261.1C581.294 261.1 582.759 261.809 583.749 263.228C584.533 264.348 584.897 265.804 584.841 267.596H575.797C575.815 268.772 576.179 269.724 576.889 270.452C577.598 271.18 578.466 271.544 579.493 271.544C580.407 271.544 581.201 271.264 581.873 270.704C582.395 270.256 582.797 269.724 583.077 269.108ZM575.937 265.916H582.769C582.601 265.001 582.199 264.273 581.565 263.732C580.949 263.172 580.211 262.892 579.353 262.892C578.513 262.892 577.766 263.181 577.113 263.76C576.478 264.32 576.086 265.039 575.937 265.916ZM587.933 252.588H589.949V273H587.933V252.588ZM604.381 263.228H602.365V273H600.349V263.228H599.117V261.38H600.349V257.18H602.365V261.38H604.381V263.228ZM606.281 273V252.588H608.297V262.724C609.118 261.641 610.229 261.1 611.629 261.1C613.122 261.1 614.233 261.632 614.961 262.696C615.409 263.349 615.633 264.385 615.633 265.804V273H613.617V265.86C613.617 264.908 613.44 264.199 613.085 263.732C612.656 263.172 612.021 262.892 611.181 262.892C610.322 262.892 609.641 263.191 609.137 263.788C608.577 264.441 608.297 265.487 608.297 266.924V273H606.281ZM627.784 269.108L629.464 270.032C629.072 270.779 628.596 271.404 628.036 271.908C626.972 272.86 625.684 273.336 624.172 273.336C622.604 273.336 621.251 272.832 620.112 271.824C618.992 270.797 618.432 269.276 618.432 267.26C618.432 265.487 618.936 264.021 619.944 262.864C620.971 261.688 622.343 261.1 624.06 261.1C626.001 261.1 627.467 261.809 628.456 263.228C629.24 264.348 629.604 265.804 629.548 267.596H620.504C620.523 268.772 620.887 269.724 621.596 270.452C622.305 271.18 623.173 271.544 624.2 271.544C625.115 271.544 625.908 271.264 626.58 270.704C627.103 270.256 627.504 269.724 627.784 269.108ZM620.644 265.916H627.476C627.308 265.001 626.907 264.273 626.272 263.732C625.656 263.172 624.919 262.892 624.06 262.892C623.22 262.892 622.473 263.181 621.82 263.76C621.185 264.32 620.793 265.039 620.644 265.916ZM632.64 261.38H634.656V273H632.64V261.38ZM632.64 257.992C632.36 257.712 632.22 257.376 632.22 256.984C632.22 256.592 632.36 256.256 632.64 255.976C632.92 255.696 633.256 255.556 633.648 255.556C634.04 255.556 634.376 255.696 634.656 255.976C634.936 256.256 635.076 256.592 635.076 256.984C635.076 257.376 634.936 257.712 634.656 257.992C634.376 258.272 634.04 258.412 633.648 258.412C633.256 258.412 632.92 258.272 632.64 257.992ZM638.465 273V261.38H640.481V262.64C641.134 261.613 642.011 261.1 643.113 261.1C643.673 261.1 644.27 261.259 644.905 261.576L643.953 263.396C643.579 263.135 643.187 263.004 642.777 263.004C642.067 263.004 641.526 263.247 641.153 263.732C640.705 264.329 640.481 265.375 640.481 266.868V273H638.465ZM662.385 262.22V264.628C661.47 263.471 660.257 262.892 658.745 262.892C657.606 262.892 656.636 263.284 655.833 264.068C655.03 264.833 654.629 265.888 654.629 267.232C654.629 268.576 655.03 269.631 655.833 270.396C656.636 271.161 657.597 271.544 658.717 271.544C660.21 271.544 661.461 270.937 662.469 269.724V272.132C661.368 272.935 660.136 273.336 658.773 273.336C656.962 273.336 655.469 272.767 654.293 271.628C653.136 270.471 652.557 269.015 652.557 267.26C652.557 265.487 653.145 264.021 654.321 262.864C655.497 261.688 656.981 261.1 658.773 261.1C660.117 261.1 661.321 261.473 662.385 262.22ZM675.39 271.6C674.233 272.757 672.768 273.336 670.994 273.336C669.221 273.336 667.746 272.757 666.57 271.6C665.413 270.443 664.834 268.987 664.834 267.232C664.834 265.459 665.413 263.993 666.57 262.836C667.746 261.679 669.221 261.1 670.994 261.1C672.768 261.1 674.233 261.679 675.39 262.836C676.566 263.993 677.154 265.459 677.154 267.232C677.154 268.987 676.566 270.443 675.39 271.6ZM673.878 264.04C673.094 263.275 672.133 262.892 670.994 262.892C669.856 262.892 668.885 263.284 668.082 264.068C667.298 264.833 666.906 265.888 666.906 267.232C666.906 268.576 667.308 269.631 668.11 270.396C668.913 271.161 669.874 271.544 670.994 271.544C672.114 271.544 673.076 271.161 673.878 270.396C674.681 269.631 675.082 268.576 675.082 267.232C675.082 265.869 674.681 264.805 673.878 264.04ZM680.246 273V261.38H682.262V262.612C682.952 261.604 683.914 261.1 685.146 261.1C686.546 261.1 687.6 261.725 688.31 262.976C689.112 261.725 690.279 261.1 691.81 261.1C694.33 261.1 695.59 262.612 695.59 265.636V273H693.574V265.944C693.574 265.384 693.536 264.917 693.462 264.544C693.406 264.152 693.21 263.779 692.874 263.424C692.556 263.069 692.099 262.892 691.502 262.892C689.784 262.892 688.926 264.105 688.926 266.532V273H686.91V266.112C686.91 263.965 686.21 262.892 684.81 262.892C683.111 262.892 682.262 264.152 682.262 266.672V273H680.246ZM699.414 273V261.38H701.43V262.612C702.12 261.604 703.082 261.1 704.314 261.1C705.714 261.1 706.768 261.725 707.478 262.976C708.28 261.725 709.447 261.1 710.978 261.1C713.498 261.1 714.758 262.612 714.758 265.636V273H712.742V265.944C712.742 265.384 712.704 264.917 712.63 264.544C712.574 264.152 712.378 263.779 712.042 263.424C711.724 263.069 711.267 262.892 710.67 262.892C708.952 262.892 708.094 264.105 708.094 266.532V273H706.078V266.112C706.078 263.965 705.378 262.892 703.978 262.892C702.279 262.892 701.43 264.152 701.43 266.672V273H699.414ZM718.582 261.38H720.598V273H718.582V261.38ZM718.582 257.992C718.302 257.712 718.162 257.376 718.162 256.984C718.162 256.592 718.302 256.256 718.582 255.976C718.862 255.696 719.198 255.556 719.59 255.556C719.982 255.556 720.318 255.696 720.598 255.976C720.878 256.256 721.018 256.592 721.018 256.984C721.018 257.376 720.878 257.712 720.598 257.992C720.318 258.272 719.982 258.412 719.59 258.412C719.198 258.412 718.862 258.272 718.582 257.992ZM728.494 263.228H726.478V273H724.462V263.228H723.23V261.38H724.462V257.18H726.478V261.38H728.494V263.228ZM730.394 273V261.38H732.41V262.612C733.101 261.604 734.062 261.1 735.294 261.1C736.694 261.1 737.749 261.725 738.458 262.976C739.261 261.725 740.428 261.1 741.958 261.1C744.478 261.1 745.738 262.612 745.738 265.636V273H743.722V265.944C743.722 265.384 743.685 264.917 743.61 264.544C743.554 264.152 743.358 263.779 743.022 263.424C742.705 263.069 742.248 262.892 741.65 262.892C739.933 262.892 739.074 264.105 739.074 266.532V273H737.058V266.112C737.058 263.965 736.358 262.892 734.958 262.892C733.26 262.892 732.41 264.152 732.41 266.672V273H730.394ZM758.186 269.108L759.866 270.032C759.474 270.779 758.998 271.404 758.438 271.908C757.374 272.86 756.086 273.336 754.574 273.336C753.006 273.336 751.653 272.832 750.514 271.824C749.394 270.797 748.834 269.276 748.834 267.26C748.834 265.487 749.338 264.021 750.346 262.864C751.373 261.688 752.745 261.1 754.462 261.1C756.404 261.1 757.869 261.809 758.858 263.228C759.642 264.348 760.006 265.804 759.95 267.596H750.906C750.925 268.772 751.289 269.724 751.998 270.452C752.708 271.18 753.576 271.544 754.602 271.544C755.517 271.544 756.31 271.264 756.982 270.704C757.505 270.256 757.906 269.724 758.186 269.108ZM751.046 265.916H757.878C757.71 265.001 757.309 264.273 756.674 263.732C756.058 263.172 755.321 262.892 754.462 262.892C753.622 262.892 752.876 263.181 752.222 263.76C751.588 264.32 751.196 265.039 751.046 265.916ZM763.043 273V261.38H765.059V262.724C765.88 261.641 766.991 261.1 768.391 261.1C769.884 261.1 770.995 261.632 771.723 262.696C772.171 263.349 772.395 264.385 772.395 265.804V273H770.379V265.86C770.379 264.908 770.201 264.199 769.847 263.732C769.417 263.172 768.783 262.892 767.943 262.892C767.084 262.892 766.403 263.191 765.899 263.788C765.339 264.441 765.059 265.487 765.059 266.924V273H763.043ZM780.283 263.228H778.267V273H776.251V263.228H775.019V261.38H776.251V257.18H778.267V261.38H780.283V263.228ZM792.806 263.228H790.79V273H788.774V263.228H787.542V261.38H788.774V257.18H790.79V261.38H792.806V263.228ZM804.535 271.6C803.377 272.757 801.912 273.336 800.139 273.336C798.365 273.336 796.891 272.757 795.715 271.6C794.557 270.443 793.979 268.987 793.979 267.232C793.979 265.459 794.557 263.993 795.715 262.836C796.891 261.679 798.365 261.1 800.139 261.1C801.912 261.1 803.377 261.679 804.535 262.836C805.711 263.993 806.299 265.459 806.299 267.232C806.299 268.987 805.711 270.443 804.535 271.6ZM803.023 264.04C802.239 263.275 801.277 262.892 800.139 262.892C799 262.892 798.029 263.284 797.227 264.068C796.443 264.833 796.051 265.888 796.051 267.232C796.051 268.576 796.452 269.631 797.255 270.396C798.057 271.161 799.019 271.544 800.139 271.544C801.259 271.544 802.22 271.161 803.023 270.396C803.825 269.631 804.227 268.576 804.227 267.232C804.227 265.869 803.825 264.805 803.023 264.04ZM824.549 269.108L826.229 270.032C825.837 270.779 825.361 271.404 824.801 271.908C823.737 272.86 822.449 273.336 820.937 273.336C819.369 273.336 818.016 272.832 816.877 271.824C815.757 270.797 815.197 269.276 815.197 267.26C815.197 265.487 815.701 264.021 816.709 262.864C817.736 261.688 819.108 261.1 820.825 261.1C822.767 261.1 824.232 261.809 825.221 263.228C826.005 264.348 826.369 265.804 826.313 267.596H817.269C817.288 268.772 817.652 269.724 818.361 270.452C819.071 271.18 819.939 271.544 820.965 271.544C821.88 271.544 822.673 271.264 823.345 270.704C823.868 270.256 824.269 269.724 824.549 269.108ZM817.409 265.916H824.241C824.073 265.001 823.672 264.273 823.037 263.732C822.421 263.172 821.684 262.892 820.825 262.892C819.985 262.892 819.239 263.181 818.585 263.76C817.951 264.32 817.559 265.039 817.409 265.916ZM827.726 273L832.682 266.784L828.454 261.38H830.918L833.914 265.328L836.966 261.38H839.43L835.174 266.812L839.99 273H837.526L833.858 268.268L830.19 273H827.726ZM851.221 262.22V264.628C850.306 263.471 849.093 262.892 847.581 262.892C846.442 262.892 845.471 263.284 844.669 264.068C843.866 264.833 843.465 265.888 843.465 267.232C843.465 268.576 843.866 269.631 844.669 270.396C845.471 271.161 846.433 271.544 847.553 271.544C849.046 271.544 850.297 270.937 851.305 269.724V272.132C850.203 272.935 848.971 273.336 847.609 273.336C845.798 273.336 844.305 272.767 843.129 271.628C841.971 270.471 841.393 269.015 841.393 267.26C841.393 265.487 841.981 264.021 843.157 262.864C844.333 261.688 845.817 261.1 847.609 261.1C848.953 261.1 850.157 261.473 851.221 262.22ZM863.022 269.108L864.702 270.032C864.31 270.779 863.834 271.404 863.274 271.908C862.21 272.86 860.922 273.336 859.41 273.336C857.842 273.336 856.489 272.832 855.35 271.824C854.23 270.797 853.67 269.276 853.67 267.26C853.67 265.487 854.174 264.021 855.182 262.864C856.209 261.688 857.581 261.1 859.298 261.1C861.239 261.1 862.705 261.809 863.694 263.228C864.478 264.348 864.842 265.804 864.786 267.596H855.742C855.761 268.772 856.125 269.724 856.834 270.452C857.543 271.18 858.411 271.544 859.438 271.544C860.353 271.544 861.146 271.264 861.818 270.704C862.341 270.256 862.742 269.724 863.022 269.108ZM855.882 265.916H862.714C862.546 265.001 862.145 264.273 861.51 263.732C860.894 263.172 860.157 262.892 859.298 262.892C858.458 262.892 857.711 263.181 857.058 263.76C856.423 264.32 856.031 265.039 855.882 265.916ZM867.879 252.588H869.895V273H867.879V252.588ZM873.703 252.588H875.719V273H873.703V252.588ZM888.151 269.108L889.831 270.032C889.439 270.779 888.963 271.404 888.403 271.908C887.339 272.86 886.051 273.336 884.539 273.336C882.971 273.336 881.618 272.832 880.479 271.824C879.359 270.797 878.799 269.276 878.799 267.26C878.799 265.487 879.303 264.021 880.311 262.864C881.338 261.688 882.71 261.1 884.427 261.1C886.368 261.1 887.834 261.809 888.823 263.228C889.607 264.348 889.971 265.804 889.915 267.596H880.871C880.89 268.772 881.254 269.724 881.963 270.452C882.672 271.18 883.54 271.544 884.567 271.544C885.482 271.544 886.275 271.264 886.947 270.704C887.47 270.256 887.871 269.724 888.151 269.108ZM881.011 265.916H887.843C887.675 265.001 887.274 264.273 886.639 263.732C886.023 263.172 885.286 262.892 884.427 262.892C883.587 262.892 882.84 263.181 882.187 263.76C881.552 264.32 881.16 265.039 881.011 265.916ZM893.008 273V261.38H895.024V262.724C895.845 261.641 896.956 261.1 898.356 261.1C899.849 261.1 900.96 261.632 901.688 262.696C902.136 263.349 902.36 264.385 902.36 265.804V273H900.344V265.86C900.344 264.908 900.166 264.199 899.812 263.732C899.382 263.172 898.748 262.892 897.908 262.892C897.049 262.892 896.368 263.191 895.864 263.788C895.304 264.441 895.024 265.487 895.024 266.924V273H893.008ZM915.26 262.22V264.628C914.345 263.471 913.132 262.892 911.62 262.892C910.481 262.892 909.511 263.284 908.708 264.068C907.905 264.833 907.504 265.888 907.504 267.232C907.504 268.576 907.905 269.631 908.708 270.396C909.511 271.161 910.472 271.544 911.592 271.544C913.085 271.544 914.336 270.937 915.344 269.724V272.132C914.243 272.935 913.011 273.336 911.648 273.336C909.837 273.336 908.344 272.767 907.168 271.628C906.011 270.471 905.432 269.015 905.432 267.26C905.432 265.487 906.02 264.021 907.196 262.864C908.372 261.688 909.856 261.1 911.648 261.1C912.992 261.1 914.196 261.473 915.26 262.22ZM927.061 269.108L928.741 270.032C928.349 270.779 927.873 271.404 927.313 271.908C926.249 272.86 924.961 273.336 923.449 273.336C921.881 273.336 920.528 272.832 919.389 271.824C918.269 270.797 917.709 269.276 917.709 267.26C917.709 265.487 918.213 264.021 919.221 262.864C920.248 261.688 921.62 261.1 923.337 261.1C925.279 261.1 926.744 261.809 927.733 263.228C928.517 264.348 928.881 265.804 928.825 267.596H919.781C919.8 268.772 920.164 269.724 920.873 270.452C921.583 271.18 922.451 271.544 923.477 271.544C924.392 271.544 925.185 271.264 925.857 270.704C926.38 270.256 926.781 269.724 927.061 269.108ZM919.921 265.916H926.753C926.585 265.001 926.184 264.273 925.549 263.732C924.933 263.172 924.196 262.892 923.337 262.892C922.497 262.892 921.751 263.181 921.097 263.76C920.463 264.32 920.071 265.039 919.921 265.916ZM932.226 272.86C931.946 272.58 931.806 272.253 931.806 271.88C931.806 271.507 931.946 271.18 932.226 270.9C932.506 270.62 932.832 270.48 933.206 270.48C933.579 270.48 933.906 270.62 934.186 270.9C934.466 271.18 934.606 271.507 934.606 271.88C934.606 272.253 934.466 272.58 934.186 272.86C933.906 273.14 933.579 273.28 933.206 273.28C932.832 273.28 932.506 273.14 932.226 272.86Z" fill="#32302F"/>
<rect width="1377" height="181" transform="translate(31.5 361)" fill="white"/>
<rect x="297" y="393" width="80" height="80" rx="16" fill="#FF0000"/>
<path d="M375.352 413.764C374.43 410.338 371.728 407.636 368.301 406.713C362.041 405 337 405 337 405C337 405 311.959 405 305.698 406.647C302.338 407.57 299.57 410.338 298.647 413.764C297 420.025 297 433.006 297 433.006C297 433.006 297 446.054 298.647 452.249C299.57 455.675 302.272 458.377 305.698 459.3C312.025 461.013 337 461.013 337 461.013C337 461.013 362.041 461.013 368.301 459.365C371.728 458.443 374.43 455.741 375.352 452.314C377 446.054 377 433.072 377 433.072C377 433.072 377.066 420.025 375.352 413.764Z" fill="#FF0000"/>
<path d="M329.026 445L349.85 433.007L329.026 421.013V445Z" fill="white"/>
<path d="M281.058 497.8L281.186 497.128H282.53L281.89 500.376C281.848 500.589 281.826 500.771 281.826 500.92C281.826 501.283 281.965 501.464 282.242 501.464C282.477 501.464 282.722 501.288 282.978 500.936C283.394 500.371 283.602 499.704 283.602 498.936C283.602 497.976 283.272 497.139 282.61 496.424C281.96 495.709 281.016 495.352 279.778 495.352C278.85 495.352 278.045 495.587 277.362 496.056C276.68 496.515 276.184 497.069 275.874 497.72C275.565 498.371 275.41 499.053 275.41 499.768C275.41 500.653 275.645 501.464 276.114 502.2C276.584 502.925 277.208 503.432 277.986 503.72C278.498 503.901 279.09 503.992 279.762 503.992C280.786 503.992 281.784 503.816 282.754 503.464L283.058 504.68C282.045 505.021 280.978 505.192 279.858 505.192C278.152 505.192 276.792 504.723 275.778 503.784C275.213 503.261 274.792 502.648 274.514 501.944C274.237 501.229 274.098 500.499 274.098 499.752C274.098 498.099 274.637 496.755 275.714 495.72C276.802 494.675 278.157 494.152 279.778 494.152C281.346 494.152 282.573 494.611 283.458 495.528C284.344 496.445 284.786 497.544 284.786 498.824C284.786 499.891 284.514 500.781 283.97 501.496C283.437 502.2 282.829 502.552 282.146 502.552C281.848 502.552 281.581 502.477 281.346 502.328C281.122 502.168 280.978 501.944 280.914 501.656C280.424 502.339 279.768 502.68 278.946 502.68C278.306 502.68 277.768 502.461 277.33 502.024C276.904 501.576 276.69 500.957 276.69 500.168C276.69 499.187 276.973 498.408 277.538 497.832C278.114 497.256 278.76 496.968 279.474 496.968C280.21 496.968 280.738 497.245 281.058 497.8ZM279.298 501.32C279.661 501.32 279.986 501.155 280.274 500.824C280.562 500.493 280.706 500.067 280.706 499.544C280.706 499.213 280.616 498.936 280.434 498.712C280.264 498.477 280.008 498.36 279.666 498.36C279.261 498.36 278.914 498.531 278.626 498.872C278.349 499.203 278.21 499.613 278.21 500.104C278.21 500.499 278.317 500.803 278.53 501.016C278.754 501.219 279.01 501.32 279.298 501.32ZM290.024 499.736H288.232V505H286.28V499.736H285.544V498.072H286.28V496.344C286.28 496.013 286.286 495.773 286.296 495.624C286.307 495.475 286.35 495.272 286.424 495.016C286.51 494.76 286.632 494.52 286.792 494.296C287.368 493.528 288.291 493.144 289.56 493.144C290.915 493.144 291.848 493.528 292.36 494.296C292.414 494.381 292.462 494.467 292.504 494.552C292.558 494.637 292.6 494.728 292.632 494.824C292.664 494.909 292.691 494.989 292.712 495.064C292.744 495.128 292.766 495.213 292.776 495.32C292.787 495.416 292.798 495.491 292.808 495.544C292.819 495.587 292.824 495.661 292.824 495.768C292.835 495.875 292.84 495.944 292.84 495.976C292.84 495.997 292.84 496.061 292.84 496.168V496.344V496.808H290.888V496.392C290.888 495.976 290.819 495.656 290.68 495.432C290.456 495.08 290.083 494.904 289.56 494.904C289.048 494.904 288.68 495.08 288.456 495.432C288.307 495.667 288.232 495.987 288.232 496.392V498.072H290.024V499.736ZM290.888 498.072H292.84V505H290.888V498.072ZM293.805 505L297.101 501.224L294.445 498.072H296.909L298.317 499.864L299.757 498.072H302.221L299.517 501.224L302.797 505H300.301L298.317 502.584L296.301 505H293.805ZM308.6 502.776L310.392 503.064C310.317 503.256 310.216 503.448 310.088 503.64C309.971 503.821 309.784 504.051 309.528 504.328C309.272 504.595 308.925 504.813 308.488 504.984C308.051 505.144 307.549 505.224 306.984 505.224C305.896 505.224 305.011 504.899 304.328 504.248C303.603 503.565 303.24 502.664 303.24 501.544C303.24 500.435 303.592 499.528 304.296 498.824C304.957 498.173 305.827 497.848 306.904 497.848C308.077 497.848 308.979 498.227 309.608 498.984C310.163 499.645 310.44 500.552 310.44 501.704V501.864H305.256C305.256 502.333 305.368 502.723 305.592 503.032C305.912 503.469 306.376 503.688 306.984 503.688C307.709 503.688 308.248 503.384 308.6 502.776ZM305.32 500.616H308.6C308.525 500.168 308.328 499.827 308.008 499.592C307.699 499.347 307.347 499.224 306.952 499.224C306.568 499.224 306.216 499.347 305.896 499.592C305.587 499.837 305.395 500.179 305.32 500.616ZM317.263 498.968V493.336H319.215V505H317.263V504.104C316.741 504.851 316.031 505.224 315.135 505.224C314.09 505.224 313.237 504.867 312.575 504.152C311.925 503.437 311.599 502.563 311.599 501.528C311.599 500.483 311.919 499.608 312.559 498.904C313.199 498.2 314.026 497.848 315.039 497.848C316.042 497.848 316.783 498.221 317.263 498.968ZM316.911 500.136C316.549 499.763 316.09 499.576 315.535 499.576C314.981 499.576 314.522 499.763 314.159 500.136C313.797 500.509 313.615 500.973 313.615 501.528C313.615 502.083 313.797 502.552 314.159 502.936C314.522 503.309 314.981 503.496 315.535 503.496C316.09 503.496 316.549 503.309 316.911 502.936C317.274 502.552 317.455 502.083 317.455 501.528C317.455 500.973 317.274 500.509 316.911 500.136ZM321.364 494.328H323.444V505H321.364V494.328ZM325.592 505V498.072H327.544V498.968C328.077 498.221 328.792 497.848 329.688 497.848C330.595 497.848 331.277 498.131 331.736 498.696C332.099 499.144 332.28 499.795 332.28 500.648V505H330.328V501.224C330.328 500.573 330.205 500.12 329.96 499.864C329.736 499.629 329.432 499.512 329.048 499.512C328.515 499.512 328.115 499.715 327.848 500.12C327.645 500.44 327.544 500.888 327.544 501.464V505H325.592ZM333.087 498.072H335.263L337.087 501.976L338.911 498.072H341.087L337.599 505H336.575L333.087 498.072ZM346.897 502.776L348.689 503.064C348.614 503.256 348.513 503.448 348.385 503.64C348.268 503.821 348.081 504.051 347.825 504.328C347.569 504.595 347.222 504.813 346.785 504.984C346.348 505.144 345.846 505.224 345.281 505.224C344.193 505.224 343.308 504.899 342.625 504.248C341.9 503.565 341.537 502.664 341.537 501.544C341.537 500.435 341.889 499.528 342.593 498.824C343.254 498.173 344.124 497.848 345.201 497.848C346.374 497.848 347.276 498.227 347.905 498.984C348.46 499.645 348.737 500.552 348.737 501.704V501.864H343.553C343.553 502.333 343.665 502.723 343.889 503.032C344.209 503.469 344.673 503.688 345.281 503.688C346.006 503.688 346.545 503.384 346.897 502.776ZM343.617 500.616H346.897C346.822 500.168 346.625 499.827 346.305 499.592C345.996 499.347 345.644 499.224 345.249 499.224C344.865 499.224 344.513 499.347 344.193 499.592C343.884 499.837 343.692 500.179 343.617 500.616ZM354.984 498.584L354.024 499.72C353.694 499.411 353.315 499.256 352.888 499.256C352.654 499.256 352.467 499.309 352.328 499.416C352.2 499.512 352.136 499.645 352.136 499.816C352.136 500.093 352.344 500.301 352.76 500.44L353.224 500.584C354.131 500.872 354.718 501.203 354.984 501.576C355.219 501.896 355.336 502.28 355.336 502.728C355.336 503.432 355.08 504.019 354.568 504.488C354.035 504.979 353.342 505.224 352.488 505.224C351.411 505.224 350.515 504.84 349.8 504.072L350.824 502.888C351.283 503.421 351.795 503.688 352.36 503.688C352.638 503.688 352.867 503.624 353.048 503.496C353.23 503.357 353.32 503.171 353.32 502.936C353.32 502.616 353.118 502.381 352.712 502.232L352.264 502.072C351.571 501.827 351.075 501.549 350.776 501.24C350.424 500.867 350.248 500.424 350.248 499.912C350.248 499.272 350.488 498.749 350.968 498.344C351.384 498.013 351.987 497.848 352.776 497.848C353.608 497.848 354.344 498.093 354.984 498.584ZM360.013 499.736H358.669V505H356.717V499.736H355.949V498.072H356.717V495.704H358.669V498.072H360.013V499.736ZM361.03 505V498.072H362.982V498.856C363.515 498.184 364.203 497.848 365.046 497.848C366.08 497.848 366.811 498.269 367.238 499.112C367.76 498.269 368.502 497.848 369.462 497.848C370.272 497.848 370.896 498.131 371.334 498.696C371.536 498.963 371.664 499.24 371.718 499.528C371.782 499.816 371.814 500.189 371.814 500.648V505H369.862V501.224C369.862 500.573 369.755 500.12 369.542 499.864C369.35 499.629 369.083 499.512 368.742 499.512C368.251 499.512 367.894 499.715 367.67 500.12C367.488 500.419 367.398 500.867 367.398 501.464V505H365.446V501.224C365.446 500.573 365.339 500.12 365.126 499.864C364.934 499.629 364.667 499.512 364.326 499.512C363.835 499.512 363.478 499.715 363.254 500.12C363.072 500.419 362.982 500.867 362.982 501.464V505H361.03ZM378.678 502.776L380.47 503.064C380.396 503.256 380.294 503.448 380.166 503.64C380.049 503.821 379.862 504.051 379.606 504.328C379.35 504.595 379.004 504.813 378.566 504.984C378.129 505.144 377.628 505.224 377.062 505.224C375.974 505.224 375.089 504.899 374.406 504.248C373.681 503.565 373.318 502.664 373.318 501.544C373.318 500.435 373.67 499.528 374.374 498.824C375.036 498.173 375.905 497.848 376.982 497.848C378.156 497.848 379.057 498.227 379.686 498.984C380.241 499.645 380.518 500.552 380.518 501.704V501.864H375.334C375.334 502.333 375.446 502.723 375.67 503.032C375.99 503.469 376.454 503.688 377.062 503.688C377.788 503.688 378.326 503.384 378.678 502.776ZM375.398 500.616H378.678C378.604 500.168 378.406 499.827 378.086 499.592C377.777 499.347 377.425 499.224 377.03 499.224C376.646 499.224 376.294 499.347 375.974 499.592C375.665 499.837 375.473 500.179 375.398 500.616ZM382.03 505V498.072H383.982V498.968C384.515 498.221 385.23 497.848 386.126 497.848C387.032 497.848 387.715 498.131 388.174 498.696C388.536 499.144 388.718 499.795 388.718 500.648V505H386.766V501.224C386.766 500.573 386.643 500.12 386.398 499.864C386.174 499.629 385.87 499.512 385.486 499.512C384.952 499.512 384.552 499.715 384.286 500.12C384.083 500.44 383.982 500.888 383.982 501.464V505H382.03ZM393.872 499.736H392.528V505H390.576V499.736H389.808V498.072H390.576V495.704H392.528V498.072H393.872V499.736ZM399.625 498.584L398.665 499.72C398.334 499.411 397.956 499.256 397.529 499.256C397.294 499.256 397.108 499.309 396.969 499.416C396.841 499.512 396.777 499.645 396.777 499.816C396.777 500.093 396.985 500.301 397.401 500.44L397.865 500.584C398.772 500.872 399.358 501.203 399.625 501.576C399.86 501.896 399.977 502.28 399.977 502.728C399.977 503.432 399.721 504.019 399.209 504.488C398.676 504.979 397.982 505.224 397.129 505.224C396.052 505.224 395.156 504.84 394.441 504.072L395.465 502.888C395.924 503.421 396.436 503.688 397.001 503.688C397.278 503.688 397.508 503.624 397.689 503.496C397.87 503.357 397.961 503.171 397.961 502.936C397.961 502.616 397.758 502.381 397.353 502.232L396.905 502.072C396.212 501.827 395.716 501.549 395.417 501.24C395.065 500.867 394.889 500.424 394.889 499.912C394.889 499.272 395.129 498.749 395.609 498.344C396.025 498.013 396.628 497.848 397.417 497.848C398.249 497.848 398.985 498.093 399.625 498.584Z" fill="#686868"/>
<g clip-path="url(#clip0_1_1485)">
<rect x="680" y="393" width="80" height="80" rx="6" fill="#0A66C2"/>
<g clip-path="url(#clip1_1_1485)">
<path d="M696.667 415.892C696.667 414.391 697.192 413.152 698.243 412.176C699.294 411.2 700.661 410.712 702.342 410.712C703.994 410.712 705.33 411.193 706.351 412.154C707.402 413.145 707.928 414.436 707.928 416.027C707.928 417.469 707.417 418.67 706.396 419.631C705.345 420.622 703.964 421.118 702.252 421.118H702.207C700.555 421.118 699.219 420.622 698.198 419.631C697.177 418.64 696.667 417.394 696.667 415.892ZM697.252 455.307V425.217H707.252V455.307H697.252ZM712.793 455.307H722.793V438.505C722.793 437.454 722.913 436.643 723.153 436.073C723.574 435.051 724.212 434.188 725.068 433.482C725.923 432.777 726.997 432.424 728.288 432.424C731.652 432.424 733.333 434.691 733.333 439.226V455.307H743.333V438.054C743.333 433.61 742.282 430.239 740.18 427.942C738.078 425.645 735.3 424.496 731.847 424.496C727.973 424.496 724.955 426.163 722.793 429.496V429.586H722.748L722.793 429.496V425.217H712.793C712.853 426.178 712.883 429.166 712.883 434.181C712.883 439.196 712.853 446.238 712.793 455.307Z" fill="white"/>
</g>
</g>
<path d="M664.058 497.8L664.186 497.128H665.53L664.89 500.376C664.848 500.589 664.826 500.771 664.826 500.92C664.826 501.283 664.965 501.464 665.242 501.464C665.477 501.464 665.722 501.288 665.978 500.936C666.394 500.371 666.602 499.704 666.602 498.936C666.602 497.976 666.272 497.139 665.61 496.424C664.96 495.709 664.016 495.352 662.778 495.352C661.85 495.352 661.045 495.587 660.362 496.056C659.68 496.515 659.184 497.069 658.874 497.72C658.565 498.371 658.41 499.053 658.41 499.768C658.41 500.653 658.645 501.464 659.114 502.2C659.584 502.925 660.208 503.432 660.986 503.72C661.498 503.901 662.09 503.992 662.762 503.992C663.786 503.992 664.784 503.816 665.754 503.464L666.058 504.68C665.045 505.021 663.978 505.192 662.858 505.192C661.152 505.192 659.792 504.723 658.778 503.784C658.213 503.261 657.792 502.648 657.514 501.944C657.237 501.229 657.098 500.499 657.098 499.752C657.098 498.099 657.637 496.755 658.714 495.72C659.802 494.675 661.157 494.152 662.778 494.152C664.346 494.152 665.573 494.611 666.458 495.528C667.344 496.445 667.786 497.544 667.786 498.824C667.786 499.891 667.514 500.781 666.97 501.496C666.437 502.2 665.829 502.552 665.146 502.552C664.848 502.552 664.581 502.477 664.346 502.328C664.122 502.168 663.978 501.944 663.914 501.656C663.424 502.339 662.768 502.68 661.946 502.68C661.306 502.68 660.768 502.461 660.33 502.024C659.904 501.576 659.69 500.957 659.69 500.168C659.69 499.187 659.973 498.408 660.538 497.832C661.114 497.256 661.76 496.968 662.474 496.968C663.21 496.968 663.738 497.245 664.058 497.8ZM662.298 501.32C662.661 501.32 662.986 501.155 663.274 500.824C663.562 500.493 663.706 500.067 663.706 499.544C663.706 499.213 663.616 498.936 663.434 498.712C663.264 498.477 663.008 498.36 662.666 498.36C662.261 498.36 661.914 498.531 661.626 498.872C661.349 499.203 661.21 499.613 661.21 500.104C661.21 500.499 661.317 500.803 661.53 501.016C661.754 501.219 662.01 501.32 662.298 501.32ZM673.024 499.736H671.232V505H669.28V499.736H668.544V498.072H669.28V496.344C669.28 496.013 669.286 495.773 669.296 495.624C669.307 495.475 669.35 495.272 669.424 495.016C669.51 494.76 669.632 494.52 669.792 494.296C670.368 493.528 671.291 493.144 672.56 493.144C673.915 493.144 674.848 493.528 675.36 494.296C675.414 494.381 675.462 494.467 675.504 494.552C675.558 494.637 675.6 494.728 675.632 494.824C675.664 494.909 675.691 494.989 675.712 495.064C675.744 495.128 675.766 495.213 675.776 495.32C675.787 495.416 675.798 495.491 675.808 495.544C675.819 495.587 675.824 495.661 675.824 495.768C675.835 495.875 675.84 495.944 675.84 495.976C675.84 495.997 675.84 496.061 675.84 496.168V496.344V496.808H673.888V496.392C673.888 495.976 673.819 495.656 673.68 495.432C673.456 495.08 673.083 494.904 672.56 494.904C672.048 494.904 671.68 495.08 671.456 495.432C671.307 495.667 671.232 495.987 671.232 496.392V498.072H673.024V499.736ZM673.888 498.072H675.84V505H673.888V498.072ZM676.805 505L680.101 501.224L677.445 498.072H679.909L681.317 499.864L682.757 498.072H685.221L682.517 501.224L685.797 505H683.301L681.317 502.584L679.301 505H676.805ZM691.6 502.776L693.392 503.064C693.317 503.256 693.216 503.448 693.088 503.64C692.971 503.821 692.784 504.051 692.528 504.328C692.272 504.595 691.925 504.813 691.488 504.984C691.051 505.144 690.549 505.224 689.984 505.224C688.896 505.224 688.011 504.899 687.328 504.248C686.603 503.565 686.24 502.664 686.24 501.544C686.24 500.435 686.592 499.528 687.296 498.824C687.957 498.173 688.827 497.848 689.904 497.848C691.077 497.848 691.979 498.227 692.608 498.984C693.163 499.645 693.44 500.552 693.44 501.704V501.864H688.256C688.256 502.333 688.368 502.723 688.592 503.032C688.912 503.469 689.376 503.688 689.984 503.688C690.709 503.688 691.248 503.384 691.6 502.776ZM688.32 500.616H691.6C691.525 500.168 691.328 499.827 691.008 499.592C690.699 499.347 690.347 499.224 689.952 499.224C689.568 499.224 689.216 499.347 688.896 499.592C688.587 499.837 688.395 500.179 688.32 500.616ZM700.263 498.968V493.336H702.215V505H700.263V504.104C699.741 504.851 699.031 505.224 698.135 505.224C697.09 505.224 696.237 504.867 695.575 504.152C694.925 503.437 694.599 502.563 694.599 501.528C694.599 500.483 694.919 499.608 695.559 498.904C696.199 498.2 697.026 497.848 698.039 497.848C699.042 497.848 699.783 498.221 700.263 498.968ZM699.911 500.136C699.549 499.763 699.09 499.576 698.535 499.576C697.981 499.576 697.522 499.763 697.159 500.136C696.797 500.509 696.615 500.973 696.615 501.528C696.615 502.083 696.797 502.552 697.159 502.936C697.522 503.309 697.981 503.496 698.535 503.496C699.09 503.496 699.549 503.309 699.911 502.936C700.274 502.552 700.455 502.083 700.455 501.528C700.455 500.973 700.274 500.509 699.911 500.136ZM704.364 494.328H706.444V505H704.364V494.328ZM708.592 505V498.072H710.544V498.968C711.077 498.221 711.792 497.848 712.688 497.848C713.595 497.848 714.277 498.131 714.736 498.696C715.099 499.144 715.28 499.795 715.28 500.648V505H713.328V501.224C713.328 500.573 713.205 500.12 712.96 499.864C712.736 499.629 712.432 499.512 712.048 499.512C711.515 499.512 711.115 499.715 710.848 500.12C710.645 500.44 710.544 500.888 710.544 501.464V505H708.592ZM716.087 498.072H718.263L720.087 501.976L721.911 498.072H724.087L720.599 505H719.575L716.087 498.072ZM729.897 502.776L731.689 503.064C731.614 503.256 731.513 503.448 731.385 503.64C731.268 503.821 731.081 504.051 730.825 504.328C730.569 504.595 730.222 504.813 729.785 504.984C729.348 505.144 728.846 505.224 728.281 505.224C727.193 505.224 726.308 504.899 725.625 504.248C724.9 503.565 724.537 502.664 724.537 501.544C724.537 500.435 724.889 499.528 725.593 498.824C726.254 498.173 727.124 497.848 728.201 497.848C729.374 497.848 730.276 498.227 730.905 498.984C731.46 499.645 731.737 500.552 731.737 501.704V501.864H726.553C726.553 502.333 726.665 502.723 726.889 503.032C727.209 503.469 727.673 503.688 728.281 503.688C729.006 503.688 729.545 503.384 729.897 502.776ZM726.617 500.616H729.897C729.822 500.168 729.625 499.827 729.305 499.592C728.996 499.347 728.644 499.224 728.249 499.224C727.865 499.224 727.513 499.347 727.193 499.592C726.884 499.837 726.692 500.179 726.617 500.616ZM737.984 498.584L737.024 499.72C736.694 499.411 736.315 499.256 735.888 499.256C735.654 499.256 735.467 499.309 735.328 499.416C735.2 499.512 735.136 499.645 735.136 499.816C735.136 500.093 735.344 500.301 735.76 500.44L736.224 500.584C737.131 500.872 737.718 501.203 737.984 501.576C738.219 501.896 738.336 502.28 738.336 502.728C738.336 503.432 738.08 504.019 737.568 504.488C737.035 504.979 736.342 505.224 735.488 505.224C734.411 505.224 733.515 504.84 732.8 504.072L733.824 502.888C734.283 503.421 734.795 503.688 735.36 503.688C735.638 503.688 735.867 503.624 736.048 503.496C736.23 503.357 736.32 503.171 736.32 502.936C736.32 502.616 736.118 502.381 735.712 502.232L735.264 502.072C734.571 501.827 734.075 501.549 733.776 501.24C733.424 500.867 733.248 500.424 733.248 499.912C733.248 499.272 733.488 498.749 733.968 498.344C734.384 498.013 734.987 497.848 735.776 497.848C736.608 497.848 737.344 498.093 737.984 498.584ZM743.013 499.736H741.669V505H739.717V499.736H738.949V498.072H739.717V495.704H741.669V498.072H743.013V499.736ZM744.03 505V498.072H745.982V498.856C746.515 498.184 747.203 497.848 748.046 497.848C749.08 497.848 749.811 498.269 750.238 499.112C750.76 498.269 751.502 497.848 752.462 497.848C753.272 497.848 753.896 498.131 754.334 498.696C754.536 498.963 754.664 499.24 754.718 499.528C754.782 499.816 754.814 500.189 754.814 500.648V505H752.862V501.224C752.862 500.573 752.755 500.12 752.542 499.864C752.35 499.629 752.083 499.512 751.742 499.512C751.251 499.512 750.894 499.715 750.67 500.12C750.488 500.419 750.398 500.867 750.398 501.464V505H748.446V501.224C748.446 500.573 748.339 500.12 748.126 499.864C747.934 499.629 747.667 499.512 747.326 499.512C746.835 499.512 746.478 499.715 746.254 500.12C746.072 500.419 745.982 500.867 745.982 501.464V505H744.03ZM761.678 502.776L763.47 503.064C763.396 503.256 763.294 503.448 763.166 503.64C763.049 503.821 762.862 504.051 762.606 504.328C762.35 504.595 762.004 504.813 761.566 504.984C761.129 505.144 760.628 505.224 760.062 505.224C758.974 505.224 758.089 504.899 757.406 504.248C756.681 503.565 756.318 502.664 756.318 501.544C756.318 500.435 756.67 499.528 757.374 498.824C758.036 498.173 758.905 497.848 759.982 497.848C761.156 497.848 762.057 498.227 762.686 498.984C763.241 499.645 763.518 500.552 763.518 501.704V501.864H758.334C758.334 502.333 758.446 502.723 758.67 503.032C758.99 503.469 759.454 503.688 760.062 503.688C760.788 503.688 761.326 503.384 761.678 502.776ZM758.398 500.616H761.678C761.604 500.168 761.406 499.827 761.086 499.592C760.777 499.347 760.425 499.224 760.03 499.224C759.646 499.224 759.294 499.347 758.974 499.592C758.665 499.837 758.473 500.179 758.398 500.616ZM765.03 505V498.072H766.982V498.968C767.515 498.221 768.23 497.848 769.126 497.848C770.032 497.848 770.715 498.131 771.174 498.696C771.536 499.144 771.718 499.795 771.718 500.648V505H769.766V501.224C769.766 500.573 769.643 500.12 769.398 499.864C769.174 499.629 768.87 499.512 768.486 499.512C767.952 499.512 767.552 499.715 767.286 500.12C767.083 500.44 766.982 500.888 766.982 501.464V505H765.03ZM776.872 499.736H775.528V505H773.576V499.736H772.808V498.072H773.576V495.704H775.528V498.072H776.872V499.736ZM782.625 498.584L781.665 499.72C781.334 499.411 780.956 499.256 780.529 499.256C780.294 499.256 780.108 499.309 779.969 499.416C779.841 499.512 779.777 499.645 779.777 499.816C779.777 500.093 779.985 500.301 780.401 500.44L780.865 500.584C781.772 500.872 782.358 501.203 782.625 501.576C782.86 501.896 782.977 502.28 782.977 502.728C782.977 503.432 782.721 504.019 782.209 504.488C781.676 504.979 780.982 505.224 780.129 505.224C779.052 505.224 778.156 504.84 777.441 504.072L778.465 502.888C778.924 503.421 779.436 503.688 780.001 503.688C780.278 503.688 780.508 503.624 780.689 503.496C780.87 503.357 780.961 503.171 780.961 502.936C780.961 502.616 780.758 502.381 780.353 502.232L779.905 502.072C779.212 501.827 778.716 501.549 778.417 501.24C778.065 500.867 777.889 500.424 777.889 499.912C777.889 499.272 778.129 498.749 778.609 498.344C779.025 498.013 779.628 497.848 780.417 497.848C781.249 497.848 781.985 498.093 782.625 498.584Z" fill="#686868"/>
<rect x="1063" y="393" width="80" height="80" rx="16" fill="url(#paint1_linear_1_1485)"/>
<path fill-rule="evenodd" clip-rule="evenodd" d="M1081.11 432.578C1092.77 427.497 1100.54 424.148 1104.43 422.53C1115.54 417.909 1117.85 417.107 1119.36 417.08C1119.69 417.075 1120.43 417.157 1120.91 417.545C1121.31 417.874 1121.42 418.317 1121.47 418.629C1121.53 418.94 1121.59 419.649 1121.54 420.203C1120.94 426.528 1118.33 441.877 1117.01 448.961C1116.45 451.959 1115.34 452.964 1114.28 453.062C1111.95 453.276 1110.19 451.527 1107.94 450.052C1104.42 447.745 1102.43 446.308 1099.01 444.056C1095.06 441.454 1097.62 440.023 1099.87 437.686C1100.46 437.074 1110.7 427.765 1110.9 426.92C1110.92 426.814 1110.94 426.421 1110.71 426.213C1110.48 426.005 1110.13 426.076 1109.88 426.133C1109.53 426.213 1103.9 429.93 1093.01 437.285C1091.41 438.381 1089.97 438.915 1088.67 438.887C1087.24 438.856 1084.5 438.079 1082.45 437.415C1079.95 436.601 1077.96 436.171 1078.13 434.788C1078.22 434.067 1079.21 433.331 1081.11 432.578Z" fill="white"/>
<path d="M1047.06 497.8L1047.19 497.128H1048.53L1047.89 500.376C1047.85 500.589 1047.83 500.771 1047.83 500.92C1047.83 501.283 1047.96 501.464 1048.24 501.464C1048.48 501.464 1048.72 501.288 1048.98 500.936C1049.39 500.371 1049.6 499.704 1049.6 498.936C1049.6 497.976 1049.27 497.139 1048.61 496.424C1047.96 495.709 1047.02 495.352 1045.78 495.352C1044.85 495.352 1044.04 495.587 1043.36 496.056C1042.68 496.515 1042.18 497.069 1041.87 497.72C1041.56 498.371 1041.41 499.053 1041.41 499.768C1041.41 500.653 1041.64 501.464 1042.11 502.2C1042.58 502.925 1043.21 503.432 1043.99 503.72C1044.5 503.901 1045.09 503.992 1045.76 503.992C1046.79 503.992 1047.78 503.816 1048.75 503.464L1049.06 504.68C1048.04 505.021 1046.98 505.192 1045.86 505.192C1044.15 505.192 1042.79 504.723 1041.78 503.784C1041.21 503.261 1040.79 502.648 1040.51 501.944C1040.24 501.229 1040.1 500.499 1040.1 499.752C1040.1 498.099 1040.64 496.755 1041.71 495.72C1042.8 494.675 1044.16 494.152 1045.78 494.152C1047.35 494.152 1048.57 494.611 1049.46 495.528C1050.34 496.445 1050.79 497.544 1050.79 498.824C1050.79 499.891 1050.51 500.781 1049.97 501.496C1049.44 502.2 1048.83 502.552 1048.15 502.552C1047.85 502.552 1047.58 502.477 1047.35 502.328C1047.12 502.168 1046.98 501.944 1046.91 501.656C1046.42 502.339 1045.77 502.68 1044.95 502.68C1044.31 502.68 1043.77 502.461 1043.33 502.024C1042.9 501.576 1042.69 500.957 1042.69 500.168C1042.69 499.187 1042.97 498.408 1043.54 497.832C1044.11 497.256 1044.76 496.968 1045.47 496.968C1046.21 496.968 1046.74 497.245 1047.06 497.8ZM1045.3 501.32C1045.66 501.32 1045.99 501.155 1046.27 500.824C1046.56 500.493 1046.71 500.067 1046.71 499.544C1046.71 499.213 1046.62 498.936 1046.43 498.712C1046.26 498.477 1046.01 498.36 1045.67 498.36C1045.26 498.36 1044.91 498.531 1044.63 498.872C1044.35 499.203 1044.21 499.613 1044.21 500.104C1044.21 500.499 1044.32 500.803 1044.53 501.016C1044.75 501.219 1045.01 501.32 1045.3 501.32ZM1056.02 499.736H1054.23V505H1052.28V499.736H1051.54V498.072H1052.28V496.344C1052.28 496.013 1052.29 495.773 1052.3 495.624C1052.31 495.475 1052.35 495.272 1052.42 495.016C1052.51 494.76 1052.63 494.52 1052.79 494.296C1053.37 493.528 1054.29 493.144 1055.56 493.144C1056.91 493.144 1057.85 493.528 1058.36 494.296C1058.41 494.381 1058.46 494.467 1058.5 494.552C1058.56 494.637 1058.6 494.728 1058.63 494.824C1058.66 494.909 1058.69 494.989 1058.71 495.064C1058.74 495.128 1058.77 495.213 1058.78 495.32C1058.79 495.416 1058.8 495.491 1058.81 495.544C1058.82 495.587 1058.82 495.661 1058.82 495.768C1058.83 495.875 1058.84 495.944 1058.84 495.976C1058.84 495.997 1058.84 496.061 1058.84 496.168V496.344V496.808H1056.89V496.392C1056.89 495.976 1056.82 495.656 1056.68 495.432C1056.46 495.08 1056.08 494.904 1055.56 494.904C1055.05 494.904 1054.68 495.08 1054.46 495.432C1054.31 495.667 1054.23 495.987 1054.23 496.392V498.072H1056.02V499.736ZM1056.89 498.072H1058.84V505H1056.89V498.072ZM1059.81 505L1063.1 501.224L1060.45 498.072H1062.91L1064.32 499.864L1065.76 498.072H1068.22L1065.52 501.224L1068.8 505H1066.3L1064.32 502.584L1062.3 505H1059.81ZM1074.6 502.776L1076.39 503.064C1076.32 503.256 1076.22 503.448 1076.09 503.64C1075.97 503.821 1075.78 504.051 1075.53 504.328C1075.27 504.595 1074.93 504.813 1074.49 504.984C1074.05 505.144 1073.55 505.224 1072.98 505.224C1071.9 505.224 1071.01 504.899 1070.33 504.248C1069.6 503.565 1069.24 502.664 1069.24 501.544C1069.24 500.435 1069.59 499.528 1070.3 498.824C1070.96 498.173 1071.83 497.848 1072.9 497.848C1074.08 497.848 1074.98 498.227 1075.61 498.984C1076.16 499.645 1076.44 500.552 1076.44 501.704V501.864H1071.26C1071.26 502.333 1071.37 502.723 1071.59 503.032C1071.91 503.469 1072.38 503.688 1072.98 503.688C1073.71 503.688 1074.25 503.384 1074.6 502.776ZM1071.32 500.616H1074.6C1074.53 500.168 1074.33 499.827 1074.01 499.592C1073.7 499.347 1073.35 499.224 1072.95 499.224C1072.57 499.224 1072.22 499.347 1071.9 499.592C1071.59 499.837 1071.39 500.179 1071.32 500.616ZM1083.26 498.968V493.336H1085.22V505H1083.26V504.104C1082.74 504.851 1082.03 505.224 1081.14 505.224C1080.09 505.224 1079.24 504.867 1078.58 504.152C1077.92 503.437 1077.6 502.563 1077.6 501.528C1077.6 500.483 1077.92 499.608 1078.56 498.904C1079.2 498.2 1080.03 497.848 1081.04 497.848C1082.04 497.848 1082.78 498.221 1083.26 498.968ZM1082.91 500.136C1082.55 499.763 1082.09 499.576 1081.54 499.576C1080.98 499.576 1080.52 499.763 1080.16 500.136C1079.8 500.509 1079.62 500.973 1079.62 501.528C1079.62 502.083 1079.8 502.552 1080.16 502.936C1080.52 503.309 1080.98 503.496 1081.54 503.496C1082.09 503.496 1082.55 503.309 1082.91 502.936C1083.27 502.552 1083.46 502.083 1083.46 501.528C1083.46 500.973 1083.27 500.509 1082.91 500.136ZM1087.36 494.328H1089.44V505H1087.36V494.328ZM1091.59 505V498.072H1093.54V498.968C1094.08 498.221 1094.79 497.848 1095.69 497.848C1096.59 497.848 1097.28 498.131 1097.74 498.696C1098.1 499.144 1098.28 499.795 1098.28 500.648V505H1096.33V501.224C1096.33 500.573 1096.21 500.12 1095.96 499.864C1095.74 499.629 1095.43 499.512 1095.05 499.512C1094.51 499.512 1094.11 499.715 1093.85 500.12C1093.65 500.44 1093.54 500.888 1093.54 501.464V505H1091.59ZM1099.09 498.072H1101.26L1103.09 501.976L1104.91 498.072H1107.09L1103.6 505H1102.57L1099.09 498.072ZM1112.9 502.776L1114.69 503.064C1114.61 503.256 1114.51 503.448 1114.38 503.64C1114.27 503.821 1114.08 504.051 1113.82 504.328C1113.57 504.595 1113.22 504.813 1112.78 504.984C1112.35 505.144 1111.85 505.224 1111.28 505.224C1110.19 505.224 1109.31 504.899 1108.62 504.248C1107.9 503.565 1107.54 502.664 1107.54 501.544C1107.54 500.435 1107.89 499.528 1108.59 498.824C1109.25 498.173 1110.12 497.848 1111.2 497.848C1112.37 497.848 1113.28 498.227 1113.9 498.984C1114.46 499.645 1114.74 500.552 1114.74 501.704V501.864H1109.55C1109.55 502.333 1109.66 502.723 1109.89 503.032C1110.21 503.469 1110.67 503.688 1111.28 503.688C1112.01 503.688 1112.54 503.384 1112.9 502.776ZM1109.62 500.616H1112.9C1112.82 500.168 1112.62 499.827 1112.3 499.592C1112 499.347 1111.64 499.224 1111.25 499.224C1110.86 499.224 1110.51 499.347 1110.19 499.592C1109.88 499.837 1109.69 500.179 1109.62 500.616ZM1120.98 498.584L1120.02 499.72C1119.69 499.411 1119.31 499.256 1118.89 499.256C1118.65 499.256 1118.47 499.309 1118.33 499.416C1118.2 499.512 1118.14 499.645 1118.14 499.816C1118.14 500.093 1118.34 500.301 1118.76 500.44L1119.22 500.584C1120.13 500.872 1120.72 501.203 1120.98 501.576C1121.22 501.896 1121.34 502.28 1121.34 502.728C1121.34 503.432 1121.08 504.019 1120.57 504.488C1120.03 504.979 1119.34 505.224 1118.49 505.224C1117.41 505.224 1116.51 504.84 1115.8 504.072L1116.82 502.888C1117.28 503.421 1117.79 503.688 1118.36 503.688C1118.64 503.688 1118.87 503.624 1119.05 503.496C1119.23 503.357 1119.32 503.171 1119.32 502.936C1119.32 502.616 1119.12 502.381 1118.71 502.232L1118.26 502.072C1117.57 501.827 1117.07 501.549 1116.78 501.24C1116.42 500.867 1116.25 500.424 1116.25 499.912C1116.25 499.272 1116.49 498.749 1116.97 498.344C1117.38 498.013 1117.99 497.848 1118.78 497.848C1119.61 497.848 1120.34 498.093 1120.98 498.584ZM1126.01 499.736H1124.67V505H1122.72V499.736H1121.95V498.072H1122.72V495.704H1124.67V498.072H1126.01V499.736ZM1127.03 505V498.072H1128.98V498.856C1129.51 498.184 1130.2 497.848 1131.05 497.848C1132.08 497.848 1132.81 498.269 1133.24 499.112C1133.76 498.269 1134.5 497.848 1135.46 497.848C1136.27 497.848 1136.9 498.131 1137.33 498.696C1137.54 498.963 1137.66 499.24 1137.72 499.528C1137.78 499.816 1137.81 500.189 1137.81 500.648V505H1135.86V501.224C1135.86 500.573 1135.75 500.12 1135.54 499.864C1135.35 499.629 1135.08 499.512 1134.74 499.512C1134.25 499.512 1133.89 499.715 1133.67 500.12C1133.49 500.419 1133.4 500.867 1133.4 501.464V505H1131.45V501.224C1131.45 500.573 1131.34 500.12 1131.13 499.864C1130.93 499.629 1130.67 499.512 1130.33 499.512C1129.83 499.512 1129.48 499.715 1129.25 500.12C1129.07 500.419 1128.98 500.867 1128.98 501.464V505H1127.03ZM1144.68 502.776L1146.47 503.064C1146.4 503.256 1146.29 503.448 1146.17 503.64C1146.05 503.821 1145.86 504.051 1145.61 504.328C1145.35 504.595 1145 504.813 1144.57 504.984C1144.13 505.144 1143.63 505.224 1143.06 505.224C1141.97 505.224 1141.09 504.899 1140.41 504.248C1139.68 503.565 1139.32 502.664 1139.32 501.544C1139.32 500.435 1139.67 499.528 1140.37 498.824C1141.04 498.173 1141.9 497.848 1142.98 497.848C1144.16 497.848 1145.06 498.227 1145.69 498.984C1146.24 499.645 1146.52 500.552 1146.52 501.704V501.864H1141.33C1141.33 502.333 1141.45 502.723 1141.67 503.032C1141.99 503.469 1142.45 503.688 1143.06 503.688C1143.79 503.688 1144.33 503.384 1144.68 502.776ZM1141.4 500.616H1144.68C1144.6 500.168 1144.41 499.827 1144.09 499.592C1143.78 499.347 1143.42 499.224 1143.03 499.224C1142.65 499.224 1142.29 499.347 1141.97 499.592C1141.66 499.837 1141.47 500.179 1141.4 500.616ZM1148.03 505V498.072H1149.98V498.968C1150.51 498.221 1151.23 497.848 1152.13 497.848C1153.03 497.848 1153.71 498.131 1154.17 498.696C1154.54 499.144 1154.72 499.795 1154.72 500.648V505H1152.77V501.224C1152.77 500.573 1152.64 500.12 1152.4 499.864C1152.17 499.629 1151.87 499.512 1151.49 499.512C1150.95 499.512 1150.55 499.715 1150.29 500.12C1150.08 500.44 1149.98 500.888 1149.98 501.464V505H1148.03ZM1159.87 499.736H1158.53V505H1156.58V499.736H1155.81V498.072H1156.58V495.704H1158.53V498.072H1159.87V499.736ZM1165.62 498.584L1164.66 499.72C1164.33 499.411 1163.96 499.256 1163.53 499.256C1163.29 499.256 1163.11 499.309 1162.97 499.416C1162.84 499.512 1162.78 499.645 1162.78 499.816C1162.78 500.093 1162.98 500.301 1163.4 500.44L1163.86 500.584C1164.77 500.872 1165.36 501.203 1165.62 501.576C1165.86 501.896 1165.98 502.28 1165.98 502.728C1165.98 503.432 1165.72 504.019 1165.21 504.488C1164.68 504.979 1163.98 505.224 1163.13 505.224C1162.05 505.224 1161.16 504.84 1160.44 504.072L1161.46 502.888C1161.92 503.421 1162.44 503.688 1163 503.688C1163.28 503.688 1163.51 503.624 1163.69 503.496C1163.87 503.357 1163.96 503.171 1163.96 502.936C1163.96 502.616 1163.76 502.381 1163.35 502.232L1162.9 502.072C1162.21 501.827 1161.72 501.549 1161.42 501.24C1161.06 500.867 1160.89 500.424 1160.89 499.912C1160.89 499.272 1161.13 498.749 1161.61 498.344C1162.02 498.013 1162.63 497.848 1163.42 497.848C1164.25 497.848 1164.98 498.093 1165.62 498.584Z" fill="#686868"/>
<defs>
<linearGradient id="paint0_linear_1_1485" x1="720" y1="0" x2="720" y2="760" gradientUnits="userSpaceOnUse">
<stop stop-color="#F6F6F6"/>
<stop offset="0.526042" stop-color="white"/>
<stop offset="1" stop-color="white"/>
</linearGradient>
<linearGradient id="paint1_linear_1_1485" x1="1103" y1="393" x2="1103" y2="472.407" gradientUnits="userSpaceOnUse">
<stop stop-color="#2AABEE"/>
<stop offset="1" stop-color="#229ED9"/>
</linearGradient>
<clipPath id="clip0_1_1485">
<rect x="680" y="393" width="80" height="80" rx="16" fill="white"/>
</clipPath>
<clipPath id="clip1_1_1485">
<rect width="46.6667" height="46.6667" fill="white" transform="translate(696.667 409.667)"/>
</clipPath>
</defs>
</svg>
