<svg width="26" height="26" viewBox="0 0 26 26" fill="none" xmlns="http://www.w3.org/2000/svg">
<path d="M25.7076 12.2925L13.7076 0.292493C13.6147 0.199517 13.5044 0.125758 13.383 0.0754334C13.2616 0.0251091 13.1315 -0.000793457 13.0001 -0.000793457C12.8686 -0.000793457 12.7385 0.0251091 12.6171 0.0754334C12.4957 0.125758 12.3854 0.199517 12.2926 0.292493L0.292555 12.2925C0.152544 12.4323 0.0571762 12.6106 0.0185258 12.8047C-0.0201245 12.9988 -0.000319928 13.2 0.0754325 13.3828C0.151185 13.5656 0.279479 13.7218 0.444073 13.8317C0.608667 13.9416 0.802159 14.0001 1.00006 14H6.00006V17C6.00006 17.2652 6.10541 17.5196 6.29295 17.7071C6.48048 17.8946 6.73484 18 7.00006 18H19.0001C19.2653 18 19.5196 17.8946 19.7072 17.7071C19.8947 17.5196 20.0001 17.2652 20.0001 17V14H25.0001C25.198 14.0001 25.3914 13.9416 25.556 13.8317C25.7206 13.7218 25.8489 13.5656 25.9247 13.3828C26.0004 13.2 26.0202 12.9988 25.9816 12.8047C25.9429 12.6106 25.8476 12.4323 25.7076 12.2925ZM19.0001 12C18.7348 12 18.4805 12.1054 18.2929 12.2929C18.1054 12.4804 18.0001 12.7348 18.0001 13V16H8.00006V13C8.00006 12.7348 7.8947 12.4804 7.70716 12.2929C7.51963 12.1054 7.26527 12 7.00006 12H3.41381L13.0001 2.41374L22.5863 12H19.0001ZM20.0001 25C20.0001 25.2652 19.8947 25.5196 19.7072 25.7071C19.5196 25.8946 19.2653 26 19.0001 26H7.00006C6.73484 26 6.48048 25.8946 6.29295 25.7071C6.10541 25.5196 6.00006 25.2652 6.00006 25C6.00006 24.7348 6.10541 24.4804 6.29295 24.2929C6.48048 24.1053 6.73484 24 7.00006 24H19.0001C19.2653 24 19.5196 24.1053 19.7072 24.2929C19.8947 24.4804 20.0001 24.7348 20.0001 25ZM20.0001 21C20.0001 21.2652 19.8947 21.5196 19.7072 21.7071C19.5196 21.8946 19.2653 22 19.0001 22H7.00006C6.73484 22 6.48048 21.8946 6.29295 21.7071C6.10541 21.5196 6.00006 21.2652 6.00006 21C6.00006 20.7348 6.10541 20.4804 6.29295 20.2929C6.48048 20.1053 6.73484 20 7.00006 20H19.0001C19.2653 20 19.5196 20.1053 19.7072 20.2929C19.8947 20.4804 20.0001 20.7348 20.0001 21Z" fill="#0053F4"/>
</svg>
