<svg width="26" height="24" viewBox="0 0 26 24" fill="none" xmlns="http://www.w3.org/2000/svg">
<path d="M24 0H2C1.46957 0 0.960859 0.210714 0.585786 0.585786C0.210714 0.960859 0 1.46957 0 2V19C0 19.5304 0.210714 20.0391 0.585786 20.4142C0.960859 20.7893 1.46957 21 2 21H4V23C4 23.2652 4.10536 23.5196 4.29289 23.7071C4.48043 23.8946 4.73478 24 5 24C5.26522 24 5.51957 23.8946 5.70711 23.7071C5.89464 23.5196 6 23.2652 6 23V21H20V23C20 23.2652 20.1054 23.5196 20.2929 23.7071C20.4804 23.8946 20.7348 24 21 24C21.2652 24 21.5196 23.8946 21.7071 23.7071C21.8946 23.5196 22 23.2652 22 23V21H24C24.5304 21 25.0391 20.7893 25.4142 20.4142C25.7893 20.0391 26 19.5304 26 19V2C26 1.46957 25.7893 0.960859 25.4142 0.585786C25.0391 0.210714 24.5304 0 24 0ZM24 19H2V2H24V10H21.915C21.6643 8.5166 20.8654 7.18153 19.6767 6.25936C18.4881 5.33718 16.9963 4.89521 15.4972 5.02102C13.998 5.14683 12.6008 5.83124 11.5824 6.93863C10.5641 8.04602 9.99892 9.49556 9.99892 11C9.99892 12.5044 10.5641 13.954 11.5824 15.0614C12.6008 16.1688 13.998 16.8532 15.4972 16.979C16.9963 17.1048 18.4881 16.6628 19.6767 15.7406C20.8654 14.8185 21.6643 13.4834 21.915 12H24V19ZM17.73 10C17.5099 9.61872 17.1701 9.32072 16.7633 9.15224C16.3566 8.98376 15.9056 8.9542 15.4803 9.06815C15.055 9.1821 14.6793 9.43319 14.4112 9.78248C14.1432 10.1318 13.9979 10.5597 13.9979 11C13.9979 11.4403 14.1432 11.8682 14.4112 12.2175C14.6793 12.5668 15.055 12.8179 15.4803 12.9319C15.9056 13.0458 16.3566 13.0162 16.7633 12.8478C17.1701 12.6793 17.5099 12.3813 17.73 12H19.875C19.6316 12.9427 19.0528 13.7642 18.247 14.3106C17.4412 14.857 16.4638 15.0908 15.498 14.9681C14.5322 14.8454 13.6443 14.3747 13.0007 13.6442C12.3571 12.9137 12.002 11.9736 12.002 11C12.002 10.0264 12.3571 9.08627 13.0007 8.35577C13.6443 7.62526 14.5322 7.15456 15.498 7.03188C16.4638 6.90921 17.4412 7.14299 18.247 7.6894C19.0528 8.23581 19.6316 9.05734 19.875 10H17.73Z" fill="#0053F4"/>
</svg>
