<svg width="31" height="24" viewBox="0 0 31 24" fill="none" xmlns="http://www.w3.org/2000/svg">
<path d="M25.21 9.78021C25.2058 8.70918 24.8232 7.67411 24.1296 6.85796C23.4361 6.04181 22.4763 5.49713 21.42 5.32021V2.60021C21.419 2.31914 21.3503 2.04244 21.2198 1.79353C21.0892 1.54462 20.9007 1.33082 20.67 1.17021C20.4392 1.01364 20.1735 0.916234 19.8962 0.886588C19.619 0.856942 19.3386 0.895961 19.08 1.00021L8.76 4.65021H2.5C2.03587 4.65021 1.59075 4.83458 1.26256 5.16277C0.934374 5.49096 0.75 5.93608 0.75 6.40021V13.1502C0.75 13.6143 0.934374 14.0595 1.26256 14.3876C1.59075 14.7158 2.03587 14.9002 2.5 14.9002H2.82V21.4002C2.82 21.8643 3.00437 22.3095 3.33256 22.6376C3.66075 22.9658 4.10587 23.1502 4.57 23.1502H6.78C7.23809 23.1398 7.67406 22.9512 7.99525 22.6244C8.31643 22.2976 8.49751 21.8584 8.5 21.4002V14.9002H8.73L19.05 18.6002C19.2405 18.6629 19.4394 18.6967 19.64 18.7002C19.9985 18.7004 20.3482 18.5885 20.64 18.3802C20.8694 18.2278 21.0597 18.0234 21.1952 17.7836C21.3307 17.5438 21.4078 17.2754 21.42 17.0002V14.2302C22.4755 14.0554 23.4351 13.5128 24.1288 12.6983C24.8224 11.8838 25.2055 10.8501 25.21 9.78021ZM2.21 13.1502V6.40021C2.20953 6.36372 2.21705 6.32757 2.23204 6.29431C2.24702 6.26104 2.26911 6.23145 2.29674 6.20763C2.32438 6.1838 2.3569 6.16632 2.39201 6.1564C2.42712 6.14648 2.46398 6.14436 2.5 6.15021H8.14V13.4002H2.5C2.4337 13.4002 2.37011 13.3739 2.32322 13.327C2.27634 13.2801 2.25 13.2165 2.25 13.1502H2.21ZM7.03 21.4002C7.02753 21.4657 7.00039 21.5279 6.95403 21.5742C6.90767 21.6206 6.84551 21.6477 6.78 21.6502H4.57C4.5037 21.6502 4.44011 21.6239 4.39322 21.577C4.34634 21.5301 4.32 21.4665 4.32 21.4002V14.9002H7.03V21.4002ZM19.92 17.0002C19.9207 17.0402 19.9109 17.0797 19.8916 17.1148C19.8723 17.1499 19.8442 17.1793 19.81 17.2002C19.7747 17.2195 19.7352 17.2296 19.695 17.2296C19.6548 17.2296 19.6153 17.2195 19.58 17.2002L9.64 13.6502V5.92021L19.58 2.37021C19.6153 2.35095 19.6548 2.34086 19.695 2.34086C19.7352 2.34086 19.7747 2.35095 19.81 2.37021C19.8435 2.39179 19.8711 2.42138 19.8903 2.45629C19.9095 2.49121 19.9197 2.53036 19.92 2.57021V17.0002ZM21.42 12.7502V6.85021C22.0828 7.00126 22.6746 7.37294 23.0986 7.90436C23.5225 8.43577 23.7534 9.09541 23.7534 9.77521C23.7534 10.455 23.5225 11.1146 23.0986 11.6461C22.6746 12.1775 22.0828 12.5492 21.42 12.7002V12.7502ZM25.5 16.0002C25.3625 15.8772 25.1845 15.8092 25 15.8092C24.8155 15.8092 24.6375 15.8772 24.5 16.0002C24.3596 16.1408 24.2807 16.3315 24.2807 16.5302C24.2807 16.729 24.3596 16.9196 24.5 17.0602L25.7 18.2702C25.8428 18.4074 26.032 18.4859 26.23 18.4902C26.4288 18.49 26.6195 18.4109 26.76 18.2702C26.8308 18.2013 26.887 18.1188 26.9254 18.0278C26.9638 17.9368 26.9836 17.839 26.9836 17.7402C26.9836 17.6414 26.9638 17.5436 26.9254 17.4526C26.887 17.3616 26.8308 17.2792 26.76 17.2102L25.5 16.0002ZM25.66 1.27021L24.5 2.47021C24.3596 2.61083 24.2807 2.80146 24.2807 3.00021C24.2807 3.19896 24.3596 3.38958 24.5 3.53021C24.5689 3.60078 24.6514 3.65666 24.7425 3.69447C24.8336 3.73228 24.9314 3.75124 25.03 3.75021C25.2081 3.73601 25.375 3.65787 25.5 3.53021L26.7 2.33021C26.8325 2.18803 26.9046 1.99998 26.9012 1.80568C26.8977 1.61138 26.819 1.426 26.6816 1.28858C26.5442 1.15117 26.3588 1.07246 26.1645 1.06903C25.9702 1.0656 25.7822 1.13773 25.64 1.27021H25.66ZM29.5 9.00021H27.79C27.5911 9.00021 27.4003 9.07922 27.2597 9.21988C27.119 9.36053 27.04 9.55129 27.04 9.75021C27.04 9.94912 27.119 10.1399 27.2597 10.2805C27.4003 10.4212 27.5911 10.5002 27.79 10.5002H29.5C29.6989 10.5002 29.8897 10.4212 30.0303 10.2805C30.171 10.1399 30.25 9.94912 30.25 9.75021C30.25 9.55129 30.171 9.36053 30.0303 9.21988C29.8897 9.07922 29.6989 9.00021 29.5 9.00021Z" fill="#121B64"/>
</svg>
